<svg width="206" height="120" viewBox="0 0 206 120" fill="none" xmlns="http://www.w3.org/2000/svg">
<g clip-path="url(#clip0)">
<path d="M174.946 112.215C161.213 113.439 151.678 105.742 141.75 97.2571C131.822 88.7722 123.337 83.2615 109.954 83.2177C113.54 67.8663 114.415 52.1213 118.002 36.8136C149.404 33.2272 165.368 72.2837 196.989 69.572C190.516 84.1799 183.65 98.7441 174.946 112.215Z" fill="#231F20"/>
<path fill-rule="evenodd" clip-rule="evenodd" d="M138.339 78.713C139.126 82.4306 141.444 86.8042 144.287 89.3409C144.768 89.7782 145.249 90.0844 145.73 90.4343C145.468 88.5099 145.38 87.504 145.074 85.5796C145.118 85.4046 145.118 85.3609 145.162 85.1859C145.643 85.011 145.862 84.9235 146.343 84.7486C146.605 84.6174 146.736 84.5736 146.955 84.4424C147.13 84.3987 147.217 84.3549 147.436 84.3112C147.698 84.7048 147.83 84.9235 148.092 85.3171C148.398 85.7108 148.529 85.9294 148.836 86.3668C149.011 86.5855 149.142 86.673 149.317 86.8916C149.492 86.9354 149.579 86.9354 149.754 86.9791C149.929 86.8916 149.973 86.8479 150.148 86.7604C150.366 86.4105 150.454 86.2356 150.629 85.8857C150.935 85.842 151.066 85.842 151.372 85.7982C151.416 85.5796 151.46 85.4921 151.547 85.3171C151.766 85.3609 151.853 85.4046 152.028 85.4483C152.247 85.1859 152.334 85.0547 152.553 84.7923C152.947 85.0547 153.122 85.1859 153.559 85.4483C153.734 85.4046 153.778 85.3609 153.953 85.3171C153.822 85.6233 154.128 84.8798 154.259 84.5736C154.565 83.7864 154.478 83.0429 155.046 82.6055C155.352 82.3868 155.571 82.4306 155.921 82.2993C156.314 82.1244 156.533 81.9932 156.927 81.7308C157.758 81.1185 158.195 80.5936 158.72 79.5877C158.939 79.1503 159.157 78.9317 159.201 78.3631C159.289 77.5758 158.895 77.051 158.589 76.2637C158.239 75.2578 157.889 74.733 157.408 73.8145C156.839 72.7211 156.533 72.1088 155.833 71.1029C155.221 70.2281 154.871 69.6596 154.128 69.0473C153.428 68.4787 152.991 68.2163 152.203 67.9539C151.503 67.7352 151.11 67.6477 150.498 67.7352C149.754 67.8227 149.36 68.0851 148.748 68.5224C148.18 68.9598 147.917 69.266 147.48 69.8783C146.474 71.2778 146.78 72.9398 145.774 74.2956C145.249 74.9954 144.899 75.4328 144.2 75.8264C143.718 76.1325 143.369 76.1325 142.844 76.3075C142.144 76.5699 141.707 76.7448 141.007 77.0947C140.438 77.4009 140.088 77.5758 139.563 77.882C139.082 78.1881 138.339 78.713 138.339 78.713Z" fill="#231F20" stroke="#231F20" stroke-width="0.3304" stroke-miterlimit="2.6131"/>
<path d="M140.656 72.7648C141.531 74.4268 141.925 75.3015 142.712 77.0072M139.65 75.214C140.481 76.876 140.919 77.7507 141.662 79.4564L139.65 75.214Z" stroke="white" stroke-width="0.6613" stroke-miterlimit="2.6131"/>
<path fill-rule="evenodd" clip-rule="evenodd" d="M138.382 78.6693C137.551 75.4328 137.376 72.0651 138.339 69.1785C140.438 62.793 148.354 60.9124 153.515 65.286C158.807 69.7908 162.831 78.9317 160.076 85.7983C158.501 89.7345 154.915 91.9651 151.372 92.0963C149.448 92.14 147.523 91.6152 145.73 90.4343C145.511 88.8161 145.424 87.9851 145.205 86.3669C145.161 86.0607 145.161 85.9295 145.118 85.6233C145.161 85.4484 145.161 85.4047 145.205 85.2297C145.686 85.0548 145.905 84.9673 146.386 84.7923C146.649 84.6611 146.78 84.6174 146.998 84.4862C147.173 84.4425 147.261 84.3987 147.479 84.355C147.742 84.7486 147.873 84.9673 148.136 85.3609C148.442 85.7545 148.573 85.9732 148.879 86.4106C149.054 86.6293 149.185 86.7167 149.36 86.9354C149.535 86.9792 149.623 86.9792 149.798 87.0229C149.972 86.9354 150.016 86.8917 150.191 86.8042C150.41 86.4543 150.497 86.2794 150.672 85.9295C150.978 85.8858 151.11 85.8858 151.416 85.842C151.459 85.6233 151.503 85.5359 151.591 85.3609C151.809 85.4047 151.897 85.4484 152.072 85.4921C152.29 85.2297 152.378 85.0985 152.597 84.8361C152.99 85.0985 153.165 85.2297 153.603 85.4921C153.778 85.4484 153.821 85.4047 153.996 85.3609C153.865 85.6671 154.171 84.9236 154.302 84.6174C154.608 83.8302 154.521 83.0866 155.09 82.6493C155.396 82.4306 155.614 82.4743 155.964 82.3431C156.358 82.1682 156.577 82.037 156.97 81.7745C157.801 81.1622 158.239 80.6374 158.763 79.6315C158.982 79.1941 159.201 78.9754 159.245 78.4069C159.332 77.6196 158.938 77.0948 158.632 76.3075C158.282 75.3016 157.932 74.7767 157.451 73.8583C156.883 72.7649 156.577 72.1526 155.877 71.1466C155.265 70.2719 154.915 69.7033 154.171 69.091C153.471 68.5225 153.034 68.2601 152.247 67.9976C151.547 67.779 151.153 67.6915 150.541 67.779C149.798 67.8664 149.404 68.1288 148.792 68.5662C148.223 69.0036 147.961 69.3097 147.523 69.922C146.517 71.3216 146.823 72.9836 145.818 74.3394C145.293 75.0392 144.943 75.4765 144.243 75.8702C143.762 76.1763 143.412 76.1763 142.887 76.3512C142.187 76.6137 141.75 76.7886 141.05 77.1385C140.482 77.4447 140.132 77.6196 139.607 77.9258C139.082 78.1444 138.382 78.6693 138.382 78.6693Z" fill="white" stroke="#231F20" stroke-width="0.1651" stroke-miterlimit="2.6131"/>
<path d="M144.418 71.5839C143.937 73.552 143.674 74.5579 143.193 76.5698" stroke="#231F20" stroke-width="0.6613" stroke-miterlimit="2.6131"/>
<path d="M154.565 61.7871C155.353 60.8249 155.79 60.3438 156.577 59.3816C156.446 60.8686 156.402 61.6559 156.271 63.1429C155.659 61.6996 155.353 60.9561 154.697 59.4691C155.834 60.3438 156.402 60.8249 157.54 61.6996C156.359 61.7433 155.746 61.7434 154.565 61.7871Z" fill="white" stroke="white" stroke-width="0.2974" stroke-miterlimit="2.6131"/>
<path d="M159.332 59.2504C159.376 59.4253 159.42 59.469 159.464 59.644C158.195 62.3556 157.583 63.6677 156.315 66.2919C156.227 66.2919 156.227 66.2919 156.14 66.2919C156.402 66.598 156.49 66.7293 156.752 67.0354C156.752 66.9042 156.752 66.8167 156.708 66.6855C157.277 65.5484 157.583 65.0235 158.152 63.8864C157.802 65.4172 157.67 66.1607 157.321 67.6915C157.364 67.7789 157.364 67.8227 157.408 67.9101C157.452 67.9539 157.452 67.9976 157.495 68.0413C157.539 68.0851 157.583 68.0851 157.627 68.0851C157.714 68.0851 157.714 68.0851 157.802 68.0851C158.589 66.9479 158.983 66.3794 159.77 65.2422C159.201 66.6855 158.895 67.3853 158.326 68.8286C158.239 68.7849 158.239 68.7849 158.152 68.7411C158.545 69.3972 158.764 69.7033 159.157 70.3156C159.157 70.1407 159.114 70.0969 159.114 69.922C160.513 66.773 161.213 65.1547 162.613 61.9183C162.744 61.9183 162.831 61.9183 162.963 61.9183C162.394 61.5246 162.132 61.306 161.607 60.9123C161.65 61.0873 161.694 61.1748 161.738 61.3497C160.819 62.4431 160.338 62.9679 159.42 64.0176C159.813 62.5306 159.988 61.7871 160.382 60.3C160.513 60.3 160.557 60.2563 160.688 60.2563C160.163 59.9064 159.901 59.6877 159.332 59.2504Z" fill="white" stroke="#231F20" stroke-width="0.082637" stroke-miterlimit="2.6131"/>
<path d="M163.705 62.4868C163.749 62.5743 163.749 62.6618 163.749 62.7492C162.218 66.2481 161.431 67.9538 159.944 71.409C159.813 71.3215 159.769 71.2778 159.638 71.1903C160.031 71.9775 160.25 72.4149 160.644 73.2021C160.644 72.9835 160.644 72.896 160.644 72.721C162.262 69.1347 163.093 67.2978 164.755 63.624C164.886 63.5365 164.93 63.5365 165.061 63.449C164.492 63.0554 164.23 62.8367 163.705 62.4868Z" fill="white" stroke="#231F20" stroke-width="0.082637" stroke-miterlimit="2.6131"/>
<path d="M166.636 64.455C166.636 64.5424 166.636 64.5862 166.68 64.7174C164.406 68.3912 163.313 70.1844 161.126 73.727C161.038 73.6396 160.951 73.5958 160.863 73.5521C161.038 74.1207 161.126 74.3831 161.344 74.9517C161.388 74.8204 161.432 74.733 161.476 74.6018C162 73.727 162.263 73.2897 162.831 72.415C163.05 72.6774 163.181 72.8523 163.444 73.1147C163.006 74.558 162.744 75.3015 162.307 76.7448C162.132 76.6136 162.044 76.5699 161.913 76.4387C162.219 78.6255 162.394 79.6752 162.7 81.9057C162.831 80.6811 162.875 80.0688 162.963 78.8442C164.406 74.2956 165.893 69.7033 167.336 65.1547C167.424 65.111 167.467 65.111 167.599 65.111C167.205 64.8048 167.03 64.6736 166.636 64.455Z" fill="white" stroke="#231F20" stroke-width="0.082637" stroke-miterlimit="2.6131"/>
<path d="M158.195 94.0207C154.696 96.3387 148.835 96.3387 145.38 93.9333M143.981 92.8836C143.849 92.7524 143.718 92.6649 143.587 92.5337L143.981 92.8836Z" stroke="#231F20" stroke-width="0.0749679" stroke-miterlimit="2.6131"/>
<path d="M155.483 93.7583C155.439 94.3269 155.439 94.633 155.396 95.2453C155.964 95.0267 157.714 94.2831 158.195 94.0207C157.67 93.6708 157.451 93.4959 156.883 93.146C156.401 93.4522 156.008 93.5396 155.483 93.7583Z" fill="white" stroke="white" stroke-width="0.0749679" stroke-miterlimit="2.6131"/>
<path d="M145.381 93.9332C145.468 94.5455 145.468 94.8079 145.556 95.4202C145.031 95.1141 144.506 94.7642 144.025 94.3706C143.981 93.7583 143.981 93.4958 143.938 92.8835C144.419 93.2772 144.9 93.6271 145.381 93.9332Z" stroke="white" stroke-width="0.3304" stroke-miterlimit="2.6131"/>
<path d="M144.768 92.0088C144.419 92.3587 144.287 92.5336 143.938 92.9272C144.419 93.2771 144.856 93.627 145.381 93.9332C145.687 93.5396 145.862 93.3646 146.168 92.971C145.643 92.7086 145.25 92.3149 144.768 92.0088Z" fill="white" stroke="white" stroke-width="0.0749679" stroke-miterlimit="2.6131"/>
<path d="M147.568 94.9829C147.743 95.5515 147.787 95.8576 147.961 96.4262C147.393 96.2512 146.824 95.9888 146.3 95.7264C146.212 95.1141 146.125 94.8517 146.037 94.2394C146.518 94.5455 147.043 94.808 147.568 94.9829Z" stroke="white" stroke-width="0.3304" stroke-miterlimit="2.6131"/>
<path d="M146.779 93.2771C146.473 93.6707 146.298 93.8894 145.992 94.3268C146.517 94.5892 146.998 94.8516 147.567 94.9828C147.873 94.5454 148.004 94.3268 148.31 93.9331C147.785 93.8019 147.304 93.4958 146.779 93.2771Z" fill="white" stroke="white" stroke-width="0.0749679" stroke-miterlimit="2.6131"/>
<path d="M149.929 95.6388C150.191 96.2074 150.278 96.4698 150.541 97.0384C149.929 96.9947 149.316 96.8635 148.748 96.7323C148.573 96.1637 148.442 95.8575 148.267 95.2889C148.791 95.4202 149.36 95.5514 149.929 95.6388Z" stroke="white" stroke-width="0.3304" stroke-miterlimit="2.6131"/>
<path d="M148.88 94.0645C148.617 94.5456 148.486 94.808 148.224 95.2891C148.792 95.4203 149.317 95.5515 149.886 95.5952C150.104 95.1141 150.236 94.8517 150.498 94.3269C149.929 94.3269 149.405 94.1519 148.88 94.0645Z" fill="white" stroke="white" stroke-width="0.0749679" stroke-miterlimit="2.6131"/>
<path d="M152.335 95.8575C152.685 96.3824 152.816 96.601 153.166 97.1259C152.553 97.2133 151.941 97.2133 151.329 97.2133C151.023 96.6885 150.891 96.4261 150.629 95.8575C151.197 95.8575 151.766 95.9013 152.335 95.8575Z" stroke="white" stroke-width="0.3304" stroke-miterlimit="2.6131"/>
<path d="M151.066 94.5017C150.891 95.0703 150.804 95.3327 150.629 95.9013C151.197 95.9013 151.766 95.945 152.335 95.8576C152.51 95.289 152.553 95.0266 152.728 94.458C152.16 94.5455 151.591 94.458 151.066 94.5017Z" fill="white" stroke="white" stroke-width="0.0749679" stroke-miterlimit="2.6131"/>
<path d="M154.74 95.4202C155.177 95.8575 155.352 96.0762 155.79 96.5573C155.177 96.776 154.565 96.9072 153.953 97.0384C153.559 96.5573 153.384 96.2949 153.034 95.8138C153.603 95.6826 154.215 95.5951 154.74 95.4202Z" stroke="white" stroke-width="0.3304" stroke-miterlimit="2.6131"/>
<path d="M153.253 94.3268C153.165 94.9391 153.122 95.2453 153.034 95.8138C153.603 95.6826 154.171 95.5952 154.74 95.4202C154.784 94.8517 154.827 94.5455 154.915 93.9769C154.346 94.1956 153.821 94.1519 153.253 94.3268Z" fill="white" stroke="white" stroke-width="0.0749679" stroke-miterlimit="2.6131"/>
<path d="M158.195 94.0645C158.151 94.6768 158.151 94.9829 158.107 95.5952C157.582 95.9014 157.101 96.0763 156.533 96.3387C156.095 95.9014 155.833 95.6827 155.396 95.2891C155.964 95.0704 157.714 94.3706 158.195 94.0645Z" fill="white" stroke="white" stroke-width="0.1651" stroke-miterlimit="2.6131"/>
<path d="M158.239 93.9769C154.74 96.3387 148.792 96.0763 145.425 93.8894C144.987 93.5833 144.462 93.2334 143.981 92.8398C143.85 92.7523 143.456 92.4024 143.325 92.3149" stroke="white" stroke-width="0.4957" stroke-miterlimit="2.6131"/>
<path d="M136.108 78.3631C135.802 78.7567 135.627 78.9316 135.321 79.3253C135.146 78.6255 134.578 76.3949 134.49 75.7389C134.971 76.045 135.19 76.22 135.671 76.5699C135.759 77.1822 135.977 77.6633 136.108 78.3631Z" fill="white" stroke="white" stroke-width="0.0749679" stroke-miterlimit="2.6131"/>
<path d="M141.182 90.2593C140.832 90.478 140.614 90.5654 140.264 90.7841C140.701 91.309 141.138 91.7901 141.619 92.2274C141.969 91.965 142.144 91.8338 142.494 91.5714C142.013 91.134 141.576 90.7404 141.182 90.2593Z" stroke="white" stroke-width="0.3304" stroke-miterlimit="2.6131"/>
<path d="M142.581 90.0844C142.538 90.6968 142.538 91.0029 142.494 91.6152C142.057 91.1779 141.619 90.7405 141.226 90.2594C141.269 89.6471 141.313 89.3847 141.357 88.7723C141.707 89.2972 142.144 89.6033 142.581 90.0844Z" fill="white" stroke="white" stroke-width="0.0749679" stroke-miterlimit="2.6131"/>
<path d="M139.52 88.0725C139.126 88.2037 138.907 88.2475 138.514 88.3787C138.907 88.991 139.301 89.5596 139.738 90.0844C140.132 89.9094 140.307 89.822 140.7 89.647C140.263 89.1222 139.869 88.6411 139.52 88.0725Z" stroke="white" stroke-width="0.3304" stroke-miterlimit="2.6131"/>
<path d="M140.832 88.1162C140.744 88.7285 140.744 89.0347 140.657 89.647C140.263 89.1221 139.869 88.5973 139.52 88.0725C139.607 87.4602 139.651 87.154 139.738 86.5854C140.088 87.154 140.482 87.5914 140.832 88.1162Z" fill="white" stroke="white" stroke-width="0.0749679" stroke-miterlimit="2.6131"/>
<path d="M137.989 85.5795C137.552 85.5795 137.333 85.6232 136.896 85.6232C137.245 86.2793 137.595 86.9353 137.989 87.5476C138.383 87.4601 138.601 87.4164 139.039 87.3289C138.689 86.7603 138.295 86.1918 137.989 85.5795Z" stroke="white" stroke-width="0.3304" stroke-miterlimit="2.6131"/>
<path d="M139.389 85.9732C139.258 86.5418 139.17 86.8479 139.039 87.4165C138.689 86.8042 138.339 86.2356 138.033 85.6233C138.208 85.0547 138.252 84.7923 138.427 84.2238C138.689 84.8361 139.039 85.3609 139.389 85.9732Z" fill="white" stroke="white" stroke-width="0.0749679" stroke-miterlimit="2.6131"/>
<path d="M136.633 82.9553C136.196 82.8679 135.933 82.8241 135.496 82.7804C135.759 83.4802 136.108 84.18 136.415 84.8797C136.852 84.8797 137.071 84.9235 137.508 84.9235C137.202 84.2237 136.896 83.6114 136.633 82.9553Z" stroke="white" stroke-width="0.3304" stroke-miterlimit="2.6131"/>
<path d="M138.033 83.6114C137.814 84.1362 137.726 84.3986 137.508 84.9235C137.202 84.2674 136.895 83.6551 136.677 82.9553C136.895 82.4742 137.027 82.2118 137.245 81.7307C137.464 82.3868 137.77 82.9553 138.033 83.6114Z" fill="white" stroke="white" stroke-width="0.0749679" stroke-miterlimit="2.6131"/>
<path d="M135.583 80.0688C135.102 79.8938 134.883 79.8064 134.402 79.6752C134.621 80.3749 134.84 81.1184 135.102 81.862C135.583 81.9932 135.802 82.0369 136.283 82.1681C136.064 81.4246 135.802 80.7686 135.583 80.0688Z" stroke="white" stroke-width="0.3304" stroke-miterlimit="2.6131"/>
<path d="M136.983 81.0309C136.677 81.4683 136.545 81.687 136.283 82.1243C136.064 81.4245 135.802 80.7685 135.627 80.0687C135.933 79.6751 136.064 79.4564 136.37 79.019C136.502 79.7626 136.808 80.3749 136.983 81.0309Z" fill="white" stroke="white" stroke-width="0.0749679" stroke-miterlimit="2.6131"/>
<path d="M134.446 75.7389C134.14 76.1325 133.965 76.3512 133.659 76.7448C133.747 77.4446 133.922 78.1007 134.14 78.8442C134.621 79.0629 134.84 79.1503 135.321 79.369C135.146 78.6255 134.578 76.3949 134.446 75.7389Z" fill="white" stroke="white" stroke-width="0.1651" stroke-miterlimit="2.6131"/>
<path d="M143.019 92.0963C143.15 92.2275 143.237 92.2712 143.369 92.4025M134.49 75.6515C135.321 80.9436 137.77 86.1482 141.182 90.2156C141.575 90.6967 142.013 91.1341 142.45 91.5277C142.581 91.6589 142.931 92.0088 143.106 92.0963L134.49 75.6515Z" stroke="white" stroke-width="0.4957" stroke-miterlimit="2.6131"/>
<path d="M142.232 67.1229C141.925 68.0851 141.75 68.5662 141.444 69.4847C142.8 70.4469 143.412 70.928 144.681 71.9339C144.987 70.9717 145.162 70.5343 145.512 69.5722C145.424 69.4847 145.381 69.4847 145.293 69.3972C145.074 70.0533 144.943 70.3594 144.725 71.0155C143.631 70.1407 143.063 69.7471 141.882 68.8724C142.1 68.2163 142.188 67.9102 142.407 67.2541C142.363 67.2104 142.319 67.1667 142.232 67.1229Z" fill="#231F20" stroke="#231F20" stroke-width="0.3304" stroke-miterlimit="2.6131"/>
<path d="M142.144 67.0354C143.587 68.0414 144.243 68.5662 145.599 69.6159C145.642 69.5721 145.642 69.5284 145.642 69.4847C145.118 68.6099 144.811 68.1288 144.243 67.2541C143.412 67.0792 142.975 67.0354 142.144 66.8605C142.144 66.9479 142.144 66.948 142.144 67.0354Z" fill="#231F20" stroke="#231F20" stroke-width="0.082637" stroke-miterlimit="2.6131"/>
<path d="M143.543 74.9079C142.013 75.0392 141.225 75.0829 139.651 75.2578M141.838 69.7471C140.351 73.2897 139.607 75.0392 138.12 78.6255L141.838 69.7471ZM141.488 70.6655C142.363 72.3712 142.756 73.2022 143.543 74.9079L141.488 70.6655ZM144.156 72.7211C142.8 72.7649 142.1 72.8086 140.701 72.8523C141.663 74.7767 142.1 75.7389 142.975 77.6633L144.156 72.7211Z" stroke="#231F20" stroke-width="0.6613" stroke-miterlimit="2.6131"/>
<path d="M144.068 69.3972C144.112 69.3097 144.199 69.266 144.287 69.3535C144.374 69.3972 144.418 69.5284 144.374 69.6596C144.33 69.7471 144.243 69.7908 144.155 69.7034C144.068 69.6159 144.024 69.5284 144.068 69.3972Z" fill="#231F20" stroke="#231F20" stroke-width="0.082637" stroke-miterlimit="2.6131"/>
<path d="M144.331 69.8783C144.331 70.1845 144.331 70.3157 144.331 70.6218C144.024 70.4031 143.893 70.2719 143.631 70.097C143.718 69.9658 143.762 69.922 143.85 69.7908C143.893 69.7034 143.937 69.7034 143.981 69.6159C144.068 69.5721 144.112 69.5721 144.199 69.5721C144.243 69.7034 144.287 69.7471 144.331 69.8783Z" fill="#231F20" stroke="#231F20" stroke-width="0.082637" stroke-miterlimit="2.6131"/>
<path d="M139.607 75.1703C140.438 76.8323 140.876 77.707 141.619 79.4127" stroke="#231F20" stroke-width="0.6613" stroke-miterlimit="2.6131"/>
<path d="M145.294 87.4602C147.787 89.2971 149.055 90.2593 151.854 92.14M145.294 86.7167C147.525 88.8597 148.618 89.9531 151.111 92.1837L145.294 86.7167Z" stroke="#231F20" stroke-width="0.3304" stroke-miterlimit="2.6131"/>
<path d="M148.048 91.5714C148.179 91.6151 148.266 91.6589 148.398 91.7463C148.704 90.9591 148.879 90.5655 149.185 89.7782C148.879 89.5158 148.747 89.4283 148.485 89.1659C148.135 90.0406 147.96 90.5217 147.61 91.3964C147.785 91.4839 147.873 91.5276 148.048 91.5714Z" fill="#231F20" stroke="#231F20" stroke-width="0.082637" stroke-miterlimit="2.6131"/>
<path d="M163.182 71.8901C163.357 72.0651 163.444 72.1525 163.575 72.2837C164.013 71.1029 164.275 70.4906 164.712 69.3097C164.144 70.3156 163.838 70.8405 163.182 71.8901Z" fill="#231F20" stroke="#231F20" stroke-width="0.082637" stroke-miterlimit="2.6131"/>
<path d="M148.048 51.509C148.005 51.2903 147.961 51.1591 147.917 50.9405C147.874 50.8092 147.83 50.7655 147.742 50.6343C147.655 50.5031 147.611 50.4156 147.524 50.2844C146.736 49.7158 146.343 49.4534 145.512 48.9286C143.456 53.9583 141.401 59.0316 139.389 64.105C140.526 63.2303 141.094 62.793 142.232 61.962C142.057 61.8745 141.969 61.8308 141.794 61.7433C142.406 60.1251 142.756 59.3378 143.412 57.6758C144.375 57.4134 144.856 57.2822 145.818 57.0198C146.693 54.8767 147.13 53.7833 148.048 51.509Z" fill="white" stroke="#231F20" stroke-width="0.082637" stroke-miterlimit="2.6131"/>
<path d="M146.168 50.1095C145.118 52.9524 144.637 54.3082 143.631 57.0636C144.112 56.8886 144.331 56.8449 144.812 56.6699C145.643 54.3082 146.08 53.1273 146.955 50.6781C146.649 50.4594 146.517 50.3282 146.168 50.1095Z" fill="#231F20" stroke="#231F20" stroke-width="0.082637" stroke-miterlimit="2.6131"/>
<path d="M148.661 51.9464C147.349 55.1391 146.736 56.7136 145.512 59.8189C145.512 59.9501 145.512 59.9939 145.512 60.1251C145.512 60.2125 145.555 60.2563 145.555 60.3875C145.599 60.475 145.643 60.5624 145.687 60.6499C145.774 60.7811 145.774 60.8248 145.862 60.9561C145.949 61.0873 146.037 61.131 146.124 61.2185C146.255 61.3059 146.343 61.3059 146.474 61.3934C146.605 61.3934 146.649 61.4372 146.78 61.4372C146.999 61.4372 147.086 61.4809 147.261 61.4809C147.436 61.4371 147.524 61.4372 147.699 61.3934C147.83 61.3497 147.873 61.3497 147.961 61.3059C148.048 61.2185 148.136 61.1747 148.223 61.131C148.267 61.0435 148.311 60.9998 148.355 60.9561C149.448 58.2444 149.973 56.8448 151.154 54.0457C151.154 53.9583 151.154 53.8708 151.154 53.7833C151.154 53.6958 151.154 53.6084 151.154 53.5209C151.11 53.3897 151.11 53.346 151.066 53.2147C150.979 53.0835 150.979 53.0398 150.891 52.9086C150.804 52.7774 150.76 52.7336 150.716 52.6462C150.629 52.515 150.541 52.4712 150.454 52.34C150.323 52.2525 150.279 52.2088 150.148 52.1213C150.06 52.0339 150.017 52.0339 149.885 51.9464C149.754 51.9027 149.71 51.9027 149.623 51.8589C149.492 51.8589 149.448 51.8152 149.317 51.8152C149.186 51.8152 149.142 51.8589 149.011 51.8589C148.836 51.8152 148.792 51.8589 148.661 51.9464Z" fill="white" stroke="#231F20" stroke-width="0.082637" stroke-miterlimit="2.6131"/>
<path d="M147.217 60.5624C147.305 60.475 147.305 60.4749 147.392 60.3875C147.436 60.3 147.48 60.2125 147.524 60.1251C148.573 57.4134 149.142 56.0576 150.235 53.2585C150.235 53.171 150.235 53.1273 150.279 53.0398C150.279 52.9523 150.279 52.9086 150.235 52.8211C150.191 52.7336 150.148 52.6899 150.104 52.6024C150.016 52.5587 150.016 52.515 149.929 52.4712C149.842 52.4712 149.798 52.4275 149.754 52.4275C149.71 52.4275 149.667 52.4712 149.579 52.4712C149.535 52.515 149.535 52.5587 149.492 52.6024C148.267 55.7077 147.655 57.2385 146.518 60.3C146.561 60.3875 146.561 60.3875 146.561 60.475C146.649 60.5187 146.649 60.5187 146.736 60.5624C146.824 60.5624 146.911 60.6062 146.999 60.6062C147.13 60.6062 147.13 60.6062 147.217 60.5624Z" fill="#231F20" stroke="#231F20" stroke-width="0.082637" stroke-miterlimit="2.6131"/>
<path d="M151.853 53.4333C152.334 53.827 152.597 54.0019 153.078 54.3518C152.99 54.4393 152.946 54.4393 152.903 54.5268C152.465 55.8826 152.203 56.5386 151.766 57.8944C152.684 56.801 153.121 56.2325 154.04 55.0953C154.171 55.1828 154.215 55.2265 154.346 55.3577C154.084 56.5824 153.909 57.1947 153.646 58.3755C154.259 57.5008 154.565 57.0197 155.177 56.145C155.177 56.0575 155.133 56.0138 155.133 55.9263C155.396 56.1013 155.483 56.2325 155.746 56.4074C155.658 56.4512 155.614 56.4511 155.571 56.4511C154.04 59.0316 153.296 60.2562 151.853 62.7492C151.766 62.7492 151.766 62.7929 151.678 62.7929C151.634 62.7492 151.591 62.7054 151.547 62.618C151.503 62.5305 151.503 62.4867 151.459 62.3993C151.459 62.2681 151.416 62.2243 151.416 62.0931C151.722 60.8685 151.897 60.2562 152.247 59.0753C151.416 60.0813 151.022 60.5624 150.235 61.5683C150.191 61.612 150.147 61.6558 150.104 61.7432C150.016 61.7432 150.016 61.787 149.929 61.787C149.841 61.7432 149.797 61.6995 149.754 61.6558C149.71 61.5683 149.71 61.5683 149.71 61.4808C150.585 58.4193 151.066 56.8885 151.984 53.7395C151.853 53.652 151.853 53.5646 151.853 53.4333Z" fill="white" stroke="#231F20" stroke-width="0.082637" stroke-miterlimit="2.6131"/>
<path d="M96.3073 83.5676C69.9344 79.8063 56.726 112.171 30.2219 111.121C29.4784 109.941 29.1285 109.328 28.4287 108.147C55.2828 109.066 68.666 76.045 95.4763 79.8938C95.7825 81.3808 95.9137 82.1243 96.3073 83.5676Z" fill="#C40D3C"/>
<path d="M95.4338 79.8939C68.6235 76.0013 55.2402 109.066 28.3862 108.147C27.6864 106.967 27.3365 106.354 26.6367 105.13C53.8406 105.786 67.4426 72.5025 94.6903 76.22C94.9964 77.7071 95.1276 78.4506 95.4338 79.8939Z" fill="white"/>
<path d="M94.689 76.2199C67.4413 72.4585 53.8393 105.742 26.6354 105.129C25.9356 103.905 25.5857 103.336 24.9297 102.112C52.5272 102.593 66.3479 69.0034 94.0767 72.5897C94.2953 74.033 94.4265 74.7766 94.689 76.2199Z" fill="#C40D3C"/>
<path d="M94.0333 72.5899C66.3046 69.0035 52.5277 102.593 24.8864 102.112C24.1866 100.887 23.8804 100.275 23.1807 99.0065C51.2156 99.4439 65.1674 65.5483 93.421 68.916C93.6834 70.403 93.8147 71.1028 94.0333 72.5899Z" fill="white"/>
<path d="M93.4649 68.916C65.2113 65.5483 51.2594 99.4439 23.2245 99.0065C22.5684 97.7819 22.2185 97.1258 21.5625 95.8575C50.0785 96.601 64.2053 61.9619 92.94 65.2859C93.115 66.7292 93.2462 67.4727 93.4649 68.916Z" fill="#C40D3C"/>
<path d="M92.9399 65.2858C64.2052 62.0056 50.0346 96.6447 21.5624 95.8575C20.9063 94.5891 20.5564 93.9331 19.9004 92.6647C48.8538 93.5832 63.1555 58.5942 92.4151 61.612C92.6337 63.099 92.7212 63.8425 92.9399 65.2858Z" fill="white"/>
<path d="M92.4159 61.6558C63.1564 58.5943 48.8546 93.627 19.9012 92.7086C19.2452 91.3965 18.8953 90.7404 18.2393 89.4283C47.6738 90.6092 62.1504 55.2266 91.9348 58.0257C92.1098 59.4253 92.1973 60.1688 92.4159 61.6558Z" fill="#C40D3C"/>
<path d="M91.9347 57.9819C62.1503 55.1828 47.6736 90.5654 18.2391 89.3845C17.5831 88.0724 17.2332 87.3726 16.5771 86.0168C46.4927 87.5476 61.1881 51.7714 91.4099 54.3081C91.6285 55.7951 91.716 56.5386 91.9347 57.9819Z" fill="white"/>
<path d="M91.4097 54.3519C61.188 51.8152 46.4926 87.5914 16.577 86.0606C15.921 84.7048 15.5711 84.005 14.915 82.6055C45.268 84.5736 60.2258 48.4037 90.8411 50.7218C91.1036 52.1651 91.191 52.8648 91.4097 54.3519Z" fill="#C40D3C"/>
<path d="M90.885 50.6779C60.2259 48.4036 45.3118 84.5298 14.9589 82.5616C14.3028 81.1621 13.9529 80.4623 13.2969 79.019C44.0872 81.6432 59.2637 44.7735 90.3164 47.0041C90.5351 48.4911 90.6663 49.2346 90.885 50.6779Z" fill="white"/>
<path d="M90.2731 47.0478C59.2203 44.8172 44.0439 81.6869 13.2536 79.0627C12.5975 77.6194 12.2476 76.8759 11.5479 75.3889C42.7755 78.5379 58.2144 41.3183 89.617 43.4177C89.9232 44.861 90.0544 45.5608 90.2731 47.0478Z" fill="#C40D3C"/>
<path d="M89.6157 43.3739C58.2131 41.3183 42.7742 78.4941 11.5465 75.3451C10.8905 73.8581 10.5406 73.1146 9.84082 71.5838C41.5058 75.2577 57.1634 37.732 88.8722 39.7001C89.2221 41.1871 89.3533 41.9307 89.6157 43.3739Z" fill="white"/>
<path d="M88.8728 39.7002C57.1641 37.7758 41.5502 75.2577 9.88519 71.5839C9.18541 70.0531 8.83552 69.2659 8.13574 67.6914C40.2381 71.8901 56.0269 34.1457 88.0418 36.0263C88.3917 37.5134 88.5667 38.2569 88.8728 39.7002Z" fill="#C40D3C"/>
<path d="M92.4149 61.6557C78.9879 60.2999 71.0279 65.4607 60.4437 73.1146C57.4259 65.3295 54.4956 57.5007 51.7402 49.5845C63.2429 41.0559 73.3459 35.1515 88.0413 36.07C90.0969 44.4674 91.2778 53.0397 92.4149 61.6557Z" fill="#011E41"/>
<path d="M54.7146 48.6661C54.7146 49.1472 54.7583 49.3659 54.7583 49.847C54.3647 50.1094 54.1897 50.2406 53.8398 50.5468C54.2335 50.5468 54.4084 50.5905 54.802 50.5905C54.802 51.0716 54.8458 51.2903 54.8458 51.7714C55.0645 51.2903 55.1519 51.0716 55.3706 50.6343C55.7642 50.678 55.9392 50.678 56.3328 50.678C56.0704 50.3718 55.9829 50.1969 55.7205 49.8908C55.9392 49.4097 56.0704 49.191 56.2891 48.7536C55.8954 49.016 55.7205 49.1472 55.3706 49.4534C55.1082 49.1472 54.977 48.9723 54.7146 48.6661Z" fill="white"/>
<path d="M60.138 44.9485C60.138 45.4296 60.138 45.6483 60.138 46.1294C59.7443 46.3918 59.5694 46.523 59.1758 46.7854C59.5694 46.8291 59.7443 46.8291 60.138 46.8729C60.138 47.354 60.138 47.5727 60.138 48.0537C60.3567 47.6164 60.4879 47.3977 60.7065 46.9166C61.1002 46.9603 61.3188 46.9603 61.7125 47.0041C61.4501 46.6979 61.3188 46.523 61.1002 46.2168C61.3188 45.7795 61.4501 45.5608 61.7125 45.1234C61.3188 45.3858 61.1439 45.4733 60.7503 45.7357C60.4879 45.4296 60.3567 45.2546 60.138 44.9485Z" fill="white"/>
<path d="M65.6925 41.6245C65.6925 42.1056 65.6925 42.3243 65.6925 42.8054C65.2988 43.0241 65.0801 43.1553 64.6865 43.374C65.0801 43.4177 65.2988 43.4614 65.6925 43.5489C65.6925 44.03 65.6925 44.2487 65.6925 44.7298C65.9549 44.2924 66.0424 44.0737 66.3048 43.6801C66.6984 43.7676 66.9171 43.7676 67.3107 43.8551C67.0483 43.5052 66.9608 43.374 66.6984 43.0241C66.9608 42.5867 67.0483 42.4118 67.3107 41.9744C66.9171 42.1931 66.6984 42.2806 66.3048 42.4992C66.0861 42.1056 65.9549 41.9307 65.6925 41.6245Z" fill="white"/>
<path d="M71.4655 38.9128C71.4655 39.3502 71.4655 39.5689 71.4218 40.05C70.9844 40.2249 70.8094 40.3124 70.3721 40.4874C70.7657 40.5748 70.9844 40.6623 71.378 40.7498C71.378 41.1871 71.378 41.4058 71.3343 41.8869C71.5967 41.4933 71.7279 41.3183 71.9903 40.9247C72.384 41.0559 72.6026 41.0997 72.9963 41.2309C72.7338 40.881 72.6464 40.706 72.384 40.3561C72.6464 40.0062 72.7776 39.7876 73.0837 39.4377C72.6464 39.5689 72.4277 39.6564 72.0341 39.8313C71.8591 39.4377 71.7279 39.2627 71.4655 38.9128Z" fill="white"/>
<path d="M77.6758 37.2072C77.632 37.6445 77.632 37.8632 77.5883 38.3006C77.1509 38.388 76.8885 38.4318 76.4512 38.5192C76.8885 38.6942 77.1072 38.7817 77.5446 38.9566C77.5008 39.394 77.5008 39.6127 77.4571 40.05C77.7633 39.7439 77.8945 39.5689 78.2006 39.2628C78.638 39.4377 78.8567 39.5252 79.294 39.7439C79.0316 39.3502 78.9441 39.1753 78.6817 38.7817C78.9879 38.4755 79.1628 38.3443 79.469 38.0381C78.9879 38.0819 78.7692 38.1256 78.2881 38.2131C78.0694 37.7757 77.9382 37.6008 77.6758 37.2072Z" fill="white"/>
<path d="M84.5871 36.7698C84.5433 37.1634 84.4996 37.3821 84.4559 37.7757C83.931 37.7757 83.7123 37.732 83.1875 37.7757C83.6686 38.0381 83.8873 38.1693 84.3684 38.4318C84.3246 38.8254 84.2809 39.0441 84.1934 39.4377C84.5433 39.1753 84.7183 39.0878 85.0682 38.8254C85.5493 39.0878 85.7679 39.219 86.249 39.5252C85.9866 39.0878 85.8554 38.9129 85.593 38.4755C85.9429 38.2568 86.1178 38.1256 86.5115 37.9507C85.9866 37.9069 85.7242 37.8632 85.1994 37.8632C84.937 37.4258 84.8495 37.2071 84.5871 36.7698Z" fill="white"/>
<path d="M56.3767 53.6083C56.3767 54.0894 56.4204 54.3081 56.4204 54.7892C56.0705 55.0516 55.8956 55.1828 55.502 55.4452C55.8956 55.4452 56.0705 55.4889 56.4204 55.4889C56.4204 55.97 56.4641 56.1887 56.4641 56.6261C56.6828 56.1887 56.7703 55.97 56.989 55.4889C57.3826 55.4889 57.5575 55.5327 57.9074 55.5327C57.645 55.2265 57.5575 55.0953 57.2951 54.7892C57.5138 54.3518 57.6013 54.1331 57.82 53.652C57.4701 53.9144 57.2514 54.0456 56.9015 54.3081C56.7703 54.0894 56.6391 53.9144 56.3767 53.6083Z" fill="white"/>
<path d="M61.7122 49.9343C61.7122 50.4154 61.7122 50.6341 61.7122 51.1152C61.3186 51.3776 61.1436 51.5088 60.75 51.7275C61.1436 51.7712 61.3186 51.7712 61.7122 51.815C61.7122 52.2961 61.7122 52.5148 61.7122 52.9959C61.9309 52.5585 62.0621 52.3398 62.2808 51.9025C62.6744 51.9462 62.8493 51.9462 63.243 51.9899C62.9805 51.6838 62.8931 51.5088 62.6306 51.2027C62.8931 50.7653 62.9805 50.5466 63.243 50.1093C62.8493 50.3717 62.6744 50.5029 62.2808 50.7216C62.1058 50.4154 61.9746 50.2405 61.7122 49.9343Z" fill="white"/>
<path d="M67.2669 46.6105C67.2669 47.0478 67.2669 47.3103 67.2669 47.7476C66.8733 47.9663 66.6983 48.0538 66.3047 48.3162C66.6983 48.3599 66.8733 48.4037 67.2669 48.4474C67.2669 48.8848 67.2669 49.1472 67.2669 49.5845C67.4856 49.1472 67.6168 48.9722 67.8792 48.5349C68.2728 48.6224 68.4477 48.6223 68.8414 48.7098C68.6227 48.4037 68.4915 48.2287 68.2291 47.8788C68.4915 47.4852 68.5789 47.2665 68.8414 46.8729C68.4477 47.0916 68.2291 47.179 67.8792 47.3977C67.6168 47.0916 67.4856 46.9166 67.2669 46.6105Z" fill="white"/>
<path d="M72.953 43.9425C72.953 44.3799 72.9093 44.5985 72.9093 45.0359C72.5156 45.2109 72.2969 45.2546 71.9033 45.4295C72.2969 45.517 72.5156 45.6045 72.9093 45.692C72.9093 46.1293 72.8655 46.348 72.8655 46.7854C73.1279 46.3917 73.2592 46.2168 73.5216 45.8669C73.9152 45.9981 74.1339 46.0418 74.5275 46.173C74.3088 45.8232 74.1776 45.6482 73.9589 45.2983C74.2214 44.9484 74.3526 44.7735 74.615 44.3799C74.1776 44.5111 74.0027 44.5985 73.5653 44.7298C73.3029 44.4673 73.1717 44.2924 72.953 43.9425Z" fill="white"/>
<path d="M78.9885 42.2805C78.9448 42.7179 78.9448 42.9366 78.901 43.3302C78.4637 43.4177 78.245 43.4614 77.8076 43.5489C78.2012 43.7238 78.4199 43.8113 78.8573 43.9862C78.8136 44.4236 78.8136 44.6423 78.7698 45.0359C79.076 44.7297 79.2072 44.5548 79.5133 44.2486C79.9507 44.4236 80.1256 44.5111 80.563 44.7297C80.3443 44.3361 80.2131 44.1612 79.9944 43.7675C80.3006 43.4614 80.4755 43.3302 80.7817 43.024C80.3443 43.0678 80.0819 43.1115 79.6445 43.199C79.3384 42.8491 79.2509 42.6741 78.9885 42.2805Z" fill="white"/>
<path d="M85.7228 41.9307C85.6353 42.3243 85.6353 42.543 85.5479 42.9366C85.0668 42.9366 84.8043 42.8929 84.3232 42.8929C84.7606 43.1553 84.9793 43.2865 85.4604 43.5489C85.3729 43.9425 85.3729 44.1612 85.2854 44.5548C85.6353 44.2924 85.8103 44.205 86.1602 43.9863C86.5975 44.2487 86.8599 44.3799 87.2973 44.6861C87.0786 44.2487 86.9474 44.0737 86.685 43.6364C87.0349 43.4177 87.2098 43.3302 87.6034 43.1115C87.0786 43.0678 86.8162 43.0241 86.3351 43.0241C86.1164 42.543 85.9852 42.3243 85.7228 41.9307Z" fill="white"/>
<path d="M58.0829 58.4192C58.1267 58.8566 58.1267 59.119 58.1267 59.5563C57.7768 59.8187 57.6018 59.95 57.252 60.2124C57.6018 60.2124 57.8205 60.2561 58.1704 60.2561C58.2142 60.6935 58.2142 60.9559 58.2142 61.3932C58.4328 60.9559 58.5203 60.7372 58.739 60.2998C59.0889 60.3436 59.3076 60.3436 59.6575 60.3436C59.4388 60.0374 59.3076 59.9062 59.0451 59.6001C59.2638 59.1627 59.3513 58.944 59.57 58.5067C59.2201 58.7691 59.0451 58.9003 58.6953 59.1627C58.4328 58.8566 58.3016 58.7253 58.0829 58.4192Z" fill="white"/>
<path d="M63.2884 54.8328C63.2884 55.3139 63.2884 55.5325 63.2884 55.9699C62.8947 56.2323 62.7198 56.3198 62.3262 56.5822C62.7198 56.6259 62.8947 56.6259 63.2884 56.6697C63.2884 57.107 63.2884 57.3695 63.2884 57.8068C63.5071 57.3695 63.6383 57.1508 63.857 56.7134C64.2506 56.7572 64.4255 56.7572 64.8192 56.8009C64.5567 56.4947 64.4693 56.3635 64.2068 56.0574C64.4693 55.62 64.5567 55.4013 64.8192 54.964C64.4255 55.2264 64.2506 55.3139 63.857 55.5763C63.6383 55.2701 63.5508 55.1389 63.2884 54.8328Z" fill="white"/>
<path d="M68.7552 51.5088C68.7552 51.9462 68.7552 52.1648 68.7552 52.6459C68.3615 52.8646 68.1866 52.9521 67.793 53.1708C68.1866 53.2145 68.3615 53.2582 68.7552 53.302C68.7552 53.7393 68.7552 53.958 68.7552 54.4391C68.9738 54.0455 69.105 53.8268 69.3675 53.4332C69.7611 53.5207 69.936 53.5207 70.3297 53.6081C70.111 53.302 69.9798 53.127 69.7611 52.8209C69.9798 52.4273 70.111 52.2086 70.3734 51.8149C69.9798 52.0336 69.8048 52.1211 69.4112 52.3398C69.105 51.9899 68.9738 51.8587 68.7552 51.5088Z" fill="white"/>
<path d="M74.2655 48.9283C74.2655 49.3657 74.2218 49.5844 74.2218 50.0218C73.8281 50.153 73.6094 50.2404 73.2158 50.4154C73.6094 50.5029 73.7844 50.5903 74.178 50.6778C74.178 51.1152 74.1343 51.3338 74.1343 51.7712C74.3967 51.4213 74.5279 51.2026 74.7903 50.8527C75.1839 50.9839 75.3589 51.0277 75.7525 51.1589C75.5338 50.809 75.4026 50.6341 75.1839 50.2842C75.4464 49.9343 75.5776 49.7593 75.84 49.4094C75.4464 49.5407 75.2277 49.6281 74.8341 49.7593C74.6154 49.4532 74.5279 49.2782 74.2655 48.9283Z" fill="white"/>
<path d="M80.1692 47.3539C80.1254 47.7912 80.0817 47.9662 80.038 48.4036C79.6006 48.491 79.3819 48.5348 78.9883 48.6222C79.3819 48.7972 79.6006 48.8846 79.9942 49.0596C79.9505 49.497 79.9067 49.6719 79.863 50.1093C80.1692 49.8031 80.3004 49.6282 80.6065 49.3657C81.0002 49.5407 81.2188 49.6719 81.6125 49.8468C81.3938 49.4532 81.3063 49.2783 81.0439 48.8846C81.3501 48.5785 81.4813 48.4473 81.7874 48.1411C81.35 48.1849 81.1314 48.2286 80.694 48.2723C80.5191 47.9225 80.3878 47.7038 80.1692 47.3539Z" fill="white"/>
<path d="M86.7296 47.004C86.6422 47.3977 86.5984 47.6163 86.5547 48.01C86.0736 47.9662 85.8112 47.9662 85.3301 47.9662C85.7674 48.2286 85.9861 48.3598 86.4235 48.6223C86.336 49.0159 86.2923 49.2346 86.2048 49.6282C86.5547 49.4095 86.7296 49.2783 87.0795 49.0596C87.5169 49.322 87.7356 49.4533 88.1729 49.7594C87.9542 49.322 87.823 49.1471 87.6044 48.7097C87.9542 48.4911 88.1292 48.4036 88.5228 48.1849C87.998 48.1412 87.7793 48.0974 87.2545 48.0537C87.0795 47.6163 86.9483 47.4414 86.7296 47.004Z" fill="white"/>
<path d="M59.7443 63.1428C59.788 63.5802 59.788 63.7989 59.8318 64.28C59.4819 64.5424 59.3069 64.6736 58.957 64.8923C59.3069 64.936 59.4819 64.936 59.8318 64.936C59.8755 65.3734 59.8755 65.592 59.9192 66.0294C60.0942 65.592 60.2254 65.3734 60.4003 64.9797C60.7502 65.0235 60.9252 65.0235 61.2751 65.0672C61.0564 64.7611 60.9252 64.6298 60.6627 64.3237C60.8814 63.8863 60.9689 63.6677 61.1876 63.2303C60.8377 63.4927 60.6627 63.6239 60.3129 63.8426C60.0942 63.5802 59.963 63.449 59.7443 63.1428Z" fill="white"/>
<path d="M64.8179 59.6439C64.8179 60.0813 64.8179 60.3437 64.8179 60.7811C64.4242 61.0435 64.2493 61.131 63.8994 61.3934C64.293 61.4371 64.468 61.4371 64.8179 61.4808C64.8179 61.9182 64.8179 62.1806 64.8179 62.618C65.0365 62.1806 65.1678 61.9619 65.3864 61.5246C65.7801 61.5683 65.955 61.5683 66.3486 61.612C66.1299 61.3059 65.9987 61.1747 65.7363 60.8685C65.955 60.4312 66.0862 60.2125 66.3486 59.7751C65.955 60.0375 65.7801 60.125 65.3864 60.3874C65.1678 60.0813 65.0803 59.9501 64.8179 59.6439Z" fill="white"/>
<path d="M70.1978 56.3636C70.1978 56.801 70.1978 57.0197 70.1978 57.4571C69.8041 57.6757 69.6292 57.7632 69.2793 57.9819C69.6729 58.0256 69.8479 58.0694 70.1978 58.1131C70.1978 58.5505 70.1978 58.7691 70.1978 59.2065C70.4164 58.8129 70.5477 58.5942 70.7663 58.2006C71.1162 58.288 71.3349 58.288 71.6848 58.3755C71.4661 58.0694 71.3349 57.8944 71.1162 57.5883C71.3349 57.1946 71.4661 56.976 71.6848 56.5823C71.2912 56.7573 71.1162 56.8885 70.7663 57.0634C70.5477 56.8447 70.4164 56.6698 70.1978 56.3636Z" fill="white"/>
<path d="M75.5762 53.8707C75.5762 54.3081 75.5325 54.5268 75.5325 54.9641C75.1389 55.0953 74.9639 55.1828 74.5703 55.3577C74.9202 55.4452 75.1389 55.5327 75.4888 55.6202C75.4888 56.0575 75.445 56.2762 75.445 56.7136C75.7075 56.3637 75.7949 56.1887 76.0573 55.7951C76.4072 55.9263 76.6259 55.9701 76.9758 56.1013C76.7571 55.7514 76.6697 55.5764 76.451 55.2265C76.7134 54.8767 76.8446 54.7017 77.107 54.3518C76.7134 54.483 76.5384 54.5268 76.1448 54.7017C75.8824 54.3518 75.7949 54.2206 75.5762 53.8707Z" fill="white"/>
<path d="M81.2629 52.3398C81.2192 52.7772 81.1754 52.9522 81.1317 53.3895C80.6943 53.477 80.5194 53.477 80.082 53.5645C80.4757 53.7394 80.6506 53.8269 81.0442 54.0018C81.0005 54.4392 80.9568 54.6141 80.913 55.0515C81.1754 54.7454 81.3504 54.6141 81.6128 54.308C82.0064 54.4829 82.1814 54.6141 82.575 54.7891C82.3563 54.3955 82.2688 54.2205 82.0502 53.8269C82.3563 53.5207 82.4875 53.3895 82.7937 53.1271C82.3563 53.1708 82.1376 53.2146 81.744 53.2583C81.5691 52.9084 81.4379 52.7335 81.2629 52.3398Z" fill="white"/>
<path d="M87.6046 52.1212C87.5172 52.5148 87.4734 52.6898 87.386 53.0834C86.9049 53.0397 86.6862 53.0397 86.2051 53.0397C86.6424 53.3021 86.8174 53.4333 87.2547 53.6957C87.1673 54.0893 87.1235 54.2643 87.0361 54.6579C87.386 54.4392 87.5609 54.308 87.8671 54.0893C88.3044 54.3518 88.5231 54.5267 88.9167 54.7891C88.698 54.3518 88.6106 54.1768 88.3919 53.7395C88.7418 53.5208 88.9167 53.4333 89.3103 53.2146C88.8292 53.1709 88.5668 53.1271 88.0857 53.0834C87.9545 52.7335 87.8233 52.5148 87.6046 52.1212Z" fill="white"/>
<path d="M61.4066 67.7789C61.4503 68.2163 61.4503 68.435 61.4941 68.8723C61.1442 69.091 61.013 69.2222 60.6631 69.4846C61.013 69.5284 61.1879 69.5284 61.5378 69.5721C61.5815 70.0095 61.5815 70.2282 61.6253 70.6655C61.8002 70.2282 61.8877 70.0532 62.0626 69.6158C62.4125 69.6596 62.5875 69.6596 62.9374 69.7033C62.7187 69.3972 62.5875 69.266 62.3688 68.9598C62.5437 68.5224 62.675 68.3475 62.8499 67.9101C62.5 68.1288 62.3251 68.26 62.0189 68.5224C61.7565 68.2163 61.6253 68.0851 61.4066 67.7789Z" fill="white"/>
<path d="M66.3482 64.3674C66.3482 64.8048 66.3482 65.0235 66.3482 65.5046C65.9983 65.7233 65.7796 65.8545 65.4297 66.1169C65.7796 66.1606 65.9983 66.1606 66.3482 66.2044C66.3482 66.6417 66.3482 66.8604 66.3482 67.3415C66.5668 66.9041 66.6543 66.6855 66.9167 66.2918C67.2666 66.3356 67.4853 66.3356 67.8789 66.3793C67.6602 66.0731 67.529 65.9419 67.2666 65.6358C67.4853 65.1984 67.6165 64.9797 67.8352 64.5861C67.4416 64.8048 67.2666 64.936 66.873 65.1984C66.698 64.8485 66.5668 64.6736 66.3482 64.3674Z" fill="white"/>
<path d="M71.5972 61.1747C71.5972 61.612 71.5972 61.8307 71.5972 62.2681C71.2473 62.4868 71.0723 62.5742 70.6787 62.7929C71.0286 62.8367 71.2473 62.8804 71.5972 62.9679C71.5972 63.4052 71.5972 63.6239 71.5972 64.0613C71.8158 63.6676 71.9471 63.449 72.1657 63.0553C72.5156 63.1428 72.6906 63.1865 73.0842 63.2303C72.8655 62.9241 72.7343 62.7492 72.5156 62.443C72.7343 62.0494 72.8655 61.8745 73.0842 61.4808C72.7343 61.6558 72.5594 61.787 72.1657 61.9619C71.9471 61.6558 71.8596 61.4808 71.5972 61.1747Z" fill="white"/>
<path d="M76.8021 58.7692C76.8021 59.2065 76.7583 59.4252 76.7583 59.8626C76.4084 59.9938 76.1897 60.0813 75.8398 60.2125C76.1897 60.3437 76.3647 60.3874 76.7146 60.5186C76.7146 60.956 76.6708 61.1747 76.6708 61.612C76.8895 61.2621 77.0207 61.0872 77.2394 60.7373C77.5893 60.8685 77.7643 60.9122 78.1141 61.0872C77.8955 60.7373 77.808 60.5624 77.5893 60.2125C77.8517 59.8626 77.9392 59.6876 78.2016 59.3815C77.808 59.5127 77.633 59.5564 77.2831 59.6876C77.1082 59.2503 77.0207 59.0753 76.8021 58.7692Z" fill="white"/>
<path d="M82.269 57.3258C82.2252 57.7194 82.1815 57.9381 82.1378 58.3755C81.7441 58.4192 81.5255 58.4629 81.1318 58.5504C81.4817 58.7254 81.7004 58.8128 82.0503 59.0315C82.0066 59.4251 82.0066 59.6438 81.9628 60.0812C82.2252 59.775 82.3564 59.6438 82.6189 59.3377C83.0125 59.5564 83.1874 59.6438 83.5373 59.8625C83.3186 59.4689 83.2312 59.2939 83.0125 58.9003C83.2749 58.6379 83.4499 58.4629 83.7123 58.2005C83.3186 58.2443 83.1 58.2443 82.7063 58.3317C82.5751 57.8944 82.4439 57.7194 82.269 57.3258Z" fill="white"/>
<path d="M88.4349 57.1947C88.3475 57.5883 88.3037 57.7633 88.2162 58.1569C87.7351 58.1132 87.5165 58.1132 87.0791 58.0694C87.4727 58.3318 87.6914 58.4631 88.085 58.7255C87.9976 59.1191 87.9538 59.294 87.9101 59.6877C88.2162 59.469 88.3912 59.3378 88.7411 59.1191C89.1347 59.3815 89.3534 59.5565 89.7908 59.8626C89.5721 59.4252 89.4846 59.2503 89.2659 58.8129C89.6158 58.5943 89.7908 58.5068 90.1406 58.2881C89.6595 58.2444 89.3971 58.2006 88.9598 58.1569C88.7411 57.807 88.6099 57.5883 88.4349 57.1947Z" fill="white"/>
<path d="M58.2136 49.2783C58.2136 49.7594 58.2136 49.9781 58.2573 50.4592C57.8637 50.7216 57.6888 50.8528 57.3389 51.1152C57.7325 51.159 57.9074 51.159 58.3011 51.159C58.3011 51.6401 58.3011 51.8588 58.3448 52.3399C58.5635 51.9025 58.6947 51.6401 58.9134 51.2027C59.307 51.2465 59.4819 51.2465 59.8755 51.2902C59.6131 50.984 59.5257 50.8091 59.2632 50.5029C59.4819 50.0656 59.6131 49.8469 59.8318 49.3658C59.4382 49.6282 59.2633 49.7594 58.8696 50.0218C58.5635 49.7594 58.4323 49.5845 58.2136 49.2783Z" fill="white"/>
<path d="M63.6809 45.7357C63.6809 46.2168 63.6809 46.4355 63.6809 46.9166C63.2873 47.1353 63.1124 47.2665 62.7188 47.5289C63.1124 47.5726 63.3311 47.6164 63.7247 47.6601C63.7247 48.1412 63.7247 48.3599 63.7247 48.841C63.9434 48.4036 64.0746 48.1849 64.337 47.7476C64.7306 47.7913 64.9056 47.8351 65.2992 47.8788C65.0368 47.5726 64.9493 47.3977 64.6869 47.0915C64.9493 46.6542 65.0368 46.4355 65.2992 45.9981C64.9056 46.2168 64.7306 46.348 64.337 46.5667C64.0746 46.2168 63.9434 46.0419 63.6809 45.7357Z" fill="white"/>
<path d="M69.3233 42.718C69.3233 43.1554 69.3233 43.4178 69.3233 43.8552C68.9297 44.0301 68.711 44.1613 68.3174 44.3363C68.711 44.4237 68.9297 44.4675 69.3233 44.5549C69.3233 44.9923 69.3233 45.2547 69.3233 45.6921C69.5857 45.2985 69.7169 45.0798 69.9356 44.6861C70.3292 44.7736 70.5479 44.8174 70.9416 44.9048C70.7229 44.5549 70.5917 44.38 70.3292 44.0738C70.5917 43.6802 70.7229 43.5053 70.9853 43.1116C70.5917 43.2866 70.373 43.3741 69.9794 43.549C69.6732 43.1991 69.542 43.0242 69.3233 42.718Z" fill="white"/>
<path d="M75.2262 40.4874C75.1825 40.9248 75.1825 41.1435 75.1825 41.5808C74.7451 41.712 74.5264 41.7558 74.1328 41.887C74.5264 42.0182 74.7451 42.1057 75.1825 42.2369C75.1387 42.6742 75.1387 42.8929 75.1387 43.3303C75.4012 42.9804 75.5761 42.8054 75.8385 42.4556C76.2321 42.5868 76.4508 42.6742 76.8882 42.8492C76.6695 42.4993 76.5383 42.2806 76.2759 41.9307C76.582 41.5808 76.7132 41.4059 77.0194 41.0997C76.582 41.1872 76.3634 41.2747 75.926 41.3622C75.5761 41.0123 75.4449 40.8373 75.2262 40.4874Z" fill="white"/>
<path d="M81.6568 39.3939C81.6131 39.7875 81.5693 40.0062 81.5256 40.4436C81.0445 40.4873 80.8258 40.4873 80.3447 40.5311C80.7821 40.7497 81.0008 40.8372 81.4381 41.0559C81.3944 41.4495 81.3507 41.6682 81.3069 42.1056C81.6131 41.8431 81.788 41.6682 82.1379 41.4058C82.5753 41.6245 82.794 41.7557 83.2313 41.9744C83.0126 41.5807 82.8814 41.362 82.619 40.9684C82.9689 40.706 83.1001 40.5748 83.45 40.3124C82.9689 40.3124 82.7065 40.3124 82.2254 40.3561C82.0504 39.9625 81.9192 39.7875 81.6568 39.3939Z" fill="white"/>
<path d="M59.8318 54.1768C59.8318 54.6579 59.8318 54.8765 59.8755 55.3139C59.5256 55.5763 59.3069 55.7075 58.957 55.97C59.3507 56.0137 59.5256 56.0137 59.9192 56.0137C59.9192 56.4948 59.9192 56.7135 59.963 57.1508C60.1816 56.7135 60.2691 56.4948 60.4878 56.0574C60.8814 56.1012 61.0564 56.1012 61.45 56.1449C61.1876 55.8387 61.1001 55.7075 60.8377 55.4014C61.0564 54.964 61.1876 54.7453 61.4063 54.308C61.0126 54.5704 60.8377 54.7016 60.4878 54.964C60.1816 54.6579 60.0504 54.4829 59.8318 54.1768Z" fill="white"/>
<path d="M65.2542 50.6779C65.2542 51.159 65.2542 51.3776 65.2542 51.815C64.8606 52.0337 64.6856 52.1649 64.292 52.4273C64.6856 52.471 64.8606 52.471 65.2542 52.5148C65.2542 52.9521 65.2542 53.2146 65.2542 53.6519C65.4729 53.2146 65.6041 52.9959 65.8665 52.5585C66.2601 52.6023 66.4351 52.646 66.8287 52.6897C66.61 52.3836 66.4788 52.2086 66.2164 51.9025C66.4351 51.4651 66.5663 51.2464 66.8287 50.8528C66.4351 51.0715 66.2601 51.2027 65.8665 51.4214C65.6041 51.159 65.5166 50.984 65.2542 50.6779Z" fill="white"/>
<path d="M70.7659 47.66C70.7659 48.0974 70.7659 48.3161 70.7659 48.7972C70.3723 48.9721 70.1973 49.0596 69.8037 49.2783C70.1973 49.3657 70.3723 49.4095 70.7659 49.497C70.7659 49.9343 70.7659 50.153 70.7222 50.6341C70.9846 50.2405 71.0721 50.0218 71.3345 49.6719C71.7281 49.7594 71.903 49.8031 72.2967 49.8906C72.078 49.5407 71.9468 49.4095 71.7281 49.0596C71.9905 48.666 72.1217 48.491 72.3404 48.0974C71.9468 48.2723 71.7281 48.3598 71.3345 48.5348C71.1158 48.1849 71.0283 48.0099 70.7659 47.66Z" fill="white"/>
<path d="M76.5395 45.517C76.4957 45.9543 76.4957 46.173 76.452 46.6104C76.0147 46.7416 75.8397 46.7853 75.4023 46.9165C75.796 47.0477 76.0146 47.1352 76.4083 47.2664C76.3645 47.7038 76.3645 47.9225 76.3208 48.3598C76.5832 48.0099 76.7144 47.835 77.0206 47.5288C77.4142 47.66 77.6329 47.7475 78.0265 47.9225C77.8078 47.5726 77.6766 47.3976 77.4579 47.004C77.7204 46.6541 77.8953 46.5229 78.1577 46.173C77.7203 46.2605 77.5017 46.3042 77.108 46.4354C76.8894 46.0418 76.7582 45.8669 76.5395 45.517Z" fill="white"/>
<path d="M82.8367 44.4674C82.793 44.861 82.7492 45.0797 82.7055 45.4733C82.2244 45.5171 82.0057 45.5171 81.5684 45.5608C82.0057 45.7795 82.1807 45.867 82.618 46.0856C82.5743 46.4793 82.5306 46.698 82.4868 47.0916C82.793 46.8292 82.9679 46.698 83.2741 46.3918C83.7114 46.6105 83.9301 46.7417 84.3237 46.9604C84.1051 46.5667 83.9739 46.3481 83.7552 45.9544C84.1051 45.692 84.2363 45.5608 84.5862 45.2984C84.1051 45.2984 83.8864 45.2984 83.4053 45.3421C83.1429 45.0797 83.0554 44.861 82.8367 44.4674Z" fill="white"/>
<path d="M61.406 58.9878C61.406 59.4252 61.406 59.6876 61.4497 60.1249C61.0998 60.3874 60.9249 60.5186 60.5312 60.7372C60.8811 60.781 61.0998 60.781 61.4497 60.8247C61.4497 61.2621 61.4935 61.5245 61.4935 61.9619C61.7121 61.5245 61.7996 61.3058 62.0183 60.8685C62.3682 60.9122 62.5869 60.9122 62.9367 60.9559C62.7181 60.6498 62.5869 60.5186 62.3244 60.2124C62.5431 59.775 62.6743 59.5564 62.893 59.119C62.5431 59.3814 62.3244 59.5126 61.9746 59.7313C61.7996 59.4689 61.6684 59.2939 61.406 58.9878Z" fill="white"/>
<path d="M66.7854 55.5326C66.7854 55.97 66.7854 56.2324 66.7854 56.6697C66.3918 56.8884 66.2169 57.0196 65.8232 57.282C66.2169 57.3258 66.3918 57.3258 66.7854 57.3695C66.7854 57.8069 66.7854 58.0693 66.7854 58.5067C67.0041 58.0693 67.1353 57.8506 67.354 57.457C67.7476 57.5007 67.9226 57.5445 68.3162 57.5882C68.0975 57.282 67.9663 57.1071 67.7476 56.8009C67.9663 56.3636 68.0975 56.1886 68.3162 55.7513C67.9226 55.97 67.7476 56.1012 67.354 56.3198C67.1353 56.0137 67.0041 55.8387 66.7854 55.5326Z" fill="white"/>
<path d="M72.1661 52.6023C72.1661 53.0397 72.1661 53.2583 72.1224 53.6957C71.7287 53.8706 71.5538 53.9581 71.1602 54.1768C71.5538 54.2643 71.7287 54.308 72.0786 54.3955C72.0786 54.8328 72.0786 55.0515 72.0349 55.4889C72.2536 55.0953 72.3848 54.9203 72.6472 54.5267C73.0408 54.6142 73.2158 54.6579 73.5657 54.7891C73.347 54.4392 73.2158 54.308 72.9971 53.9581C73.2595 53.5645 73.347 53.3895 73.6094 52.9959C73.2158 53.1709 73.0408 53.2583 72.6472 53.4333C72.516 53.0834 72.3848 52.9084 72.1661 52.6023Z" fill="white"/>
<path d="M77.7633 50.5029C77.7196 50.9403 77.7196 51.159 77.6759 51.5526C77.2822 51.6838 77.0635 51.7275 76.6699 51.8587C77.0635 51.99 77.2385 52.0774 77.6321 52.2086C77.5884 52.646 77.5884 52.8647 77.5446 53.2583C77.8071 52.9084 77.9383 52.7335 78.2007 52.4273C78.5943 52.6023 78.7693 52.646 79.1629 52.8209C78.9442 52.471 78.8567 52.2961 78.638 51.9025C78.9005 51.5963 79.0317 51.4214 79.3378 51.1152C78.9442 51.2027 78.7255 51.2464 78.3319 51.3776C78.0695 51.0278 77.982 50.8528 77.7633 50.5029Z" fill="white"/>
<path d="M83.8426 49.5408C83.7988 49.9344 83.7551 50.1531 83.6676 50.5467C83.2303 50.5904 83.0116 50.5904 82.5742 50.6342C82.9678 50.8529 83.1865 50.9403 83.5802 51.159C83.5364 51.5526 83.4927 51.7713 83.4052 52.1649C83.7114 51.9025 83.8863 51.7713 84.1925 51.5089C84.5861 51.7276 84.8048 51.8588 85.2421 52.1212C85.0234 51.7276 84.936 51.5089 84.7173 51.1153C85.0234 50.8529 85.1984 50.7217 85.5483 50.503C85.0672 50.503 84.8485 50.503 84.4111 50.503C84.1487 50.1093 84.0612 49.9344 83.8426 49.5408Z" fill="white"/>
<path d="M63.0244 63.7551C63.0244 64.1925 63.0681 64.4112 63.0681 64.8923C62.7182 65.1547 62.5433 65.2422 62.1934 65.5046C62.5433 65.5483 62.7182 65.5483 63.1118 65.592C63.1118 66.0294 63.1556 66.2481 63.1556 66.7292C63.3742 66.2918 63.4617 66.0731 63.6804 65.6795C64.0303 65.7233 64.2052 65.7233 64.5989 65.767C64.3802 65.4608 64.249 65.3296 64.0303 65.0235C64.249 64.5861 64.3364 64.3674 64.5551 63.9738C64.2052 64.2362 64.0303 64.3237 63.6804 64.5861C63.3742 64.1925 63.243 64.0613 63.0244 63.7551Z" fill="white"/>
<path d="M68.2727 60.3436C68.2727 60.781 68.2727 60.9997 68.2727 61.4808C67.8791 61.6994 67.7042 61.8306 67.3105 62.0493C67.7042 62.0931 67.8791 62.0931 68.2727 62.1368C68.2727 62.5742 68.2727 62.7928 68.2727 63.2739C68.4914 62.8366 68.6226 62.6616 68.8413 62.2243C69.2349 62.268 69.4099 62.3117 69.7598 62.3555C69.5411 62.0493 69.4099 61.8744 69.1912 61.5682C69.4099 61.1746 69.5411 60.9559 69.7598 60.5186C69.4099 60.7372 69.1912 60.8685 68.8413 61.0871C68.6226 60.781 68.4914 60.6498 68.2727 60.3436Z" fill="white"/>
<path d="M73.521 57.457C73.521 57.8944 73.521 58.1131 73.521 58.5504C73.1711 58.7254 72.9524 58.8129 72.6025 58.9878C72.9524 59.0753 73.1274 59.119 73.521 59.2065C73.521 59.6438 73.521 59.8625 73.521 60.2999C73.7397 59.9063 73.8709 59.7313 74.0896 59.3377C74.4395 59.4252 74.6144 59.4689 75.008 59.6001C74.7894 59.2502 74.7019 59.119 74.4832 58.7691C74.7019 58.3755 74.8331 58.2006 75.0955 57.8507C74.7456 58.0256 74.5269 58.1131 74.1771 58.288C73.8272 57.9381 73.7397 57.7632 73.521 57.457Z" fill="white"/>
<path d="M78.9003 55.4452C78.8565 55.8826 78.8565 56.1012 78.8128 56.4949C78.4192 56.5823 78.2442 56.6698 77.8506 56.7573C78.2005 56.8885 78.4192 56.976 78.7691 57.1072C78.7253 57.5445 78.7253 57.7632 78.6816 58.1568C78.944 57.8069 79.0752 57.6757 79.3376 57.3258C79.6875 57.5008 79.9062 57.5883 80.2561 57.7195C80.0374 57.3696 79.9499 57.1946 79.7313 56.801C79.9937 56.4949 80.1249 56.3199 80.3873 56.0138C79.9937 56.1012 79.775 56.145 79.3814 56.2324C79.2064 55.97 79.1189 55.7951 78.9003 55.4452Z" fill="white"/>
<path d="M84.7615 54.5706C84.7178 54.9642 84.674 55.1829 84.5866 55.5765C84.1492 55.5765 83.9305 55.6202 83.4932 55.664C83.8868 55.8826 84.0617 55.9701 84.4554 56.2325C84.4116 56.6261 84.3679 56.8448 84.3242 57.2384C84.6303 56.976 84.7615 56.8448 85.0677 56.5824C85.4613 56.8011 85.68 56.9323 86.0736 57.1947C85.8549 56.8011 85.7674 56.5824 85.5488 56.1888C85.8549 55.9264 86.0299 55.8389 86.336 55.5765C85.8987 55.5765 85.6362 55.5765 85.1989 55.5765C85.0677 55.1829 84.9802 54.9642 84.7615 54.5706Z" fill="white"/>
<path d="M103.087 110.116C102.65 110.116 102.3 109.809 102.213 109.372L88.6106 30.8219C88.5231 30.3408 88.8293 29.9034 89.3104 29.8159C89.7915 29.7284 90.2288 30.0346 90.3163 30.5157L103.044 104.124L115.771 30.5157C115.858 30.0346 116.296 29.7284 116.777 29.8159C117.258 29.9034 117.564 30.3408 117.477 30.8219L103.875 109.372C103.875 109.809 103.481 110.116 103.087 110.116Z" fill="#697D7F"/>
<path d="M89.4852 33.1836C90.862 33.1836 91.9781 32.0674 91.9781 30.6906C91.9781 29.3138 90.862 28.1976 89.4852 28.1976C88.1083 28.1976 86.9922 29.3138 86.9922 30.6906C86.9922 32.0674 88.1083 33.1836 89.4852 33.1836Z" fill="#697D7F"/>
<path d="M116.689 33.1836C118.066 33.1836 119.182 32.0674 119.182 30.6906C119.182 29.3138 118.066 28.1976 116.689 28.1976C115.312 28.1976 114.196 29.3138 114.196 30.6906C114.196 32.0674 115.312 33.1836 116.689 33.1836Z" fill="#697D7F"/>
<path d="M81.5252 31.7404C54.1463 36.4202 34.9898 50.6782 20.863 74.8644C20.5569 75.4329 19.7696 75.4329 19.376 74.9081L12.903 65.5485L1.75031 65.4611C1.09427 65.4611 0.700639 64.805 0.963057 64.1927C8.1358 48.9288 23.356 33.7086 37.5703 24.9613C49.3791 17.7011 60.0944 13.3275 75.0522 10.7908L81.5252 31.7404Z" fill="white"/>
<path d="M20.119 76.1764C19.5504 76.1764 19.0256 75.914 18.6757 75.4329L12.4651 66.467L1.70601 66.3358C1.0937 66.3358 0.568864 66.0296 0.26271 65.5048C-0.0434433 64.9799 -0.0871795 64.3676 0.175238 63.8428C6.95435 49.4098 21.4748 33.8835 37.0886 24.2615C49.6409 16.5202 60.575 12.409 74.8767 9.95975C75.3141 9.87228 75.7514 10.1347 75.8389 10.5721L82.3556 31.5217C82.4431 31.7841 82.3994 32.0028 82.2682 32.2215C82.1369 32.4402 81.9183 32.5714 81.6558 32.6151C55.0205 37.1199 35.9515 50.7219 21.606 75.3017C21.2998 75.8265 20.775 76.1327 20.1627 76.1764C20.1627 76.1764 20.1627 76.1764 20.119 76.1764ZM74.4394 11.7529C60.7499 14.1584 50.122 18.2259 38.0071 25.7048C22.6557 35.1518 8.39765 50.4158 1.74974 64.5426L12.9462 64.7175C13.2086 64.7175 13.4711 64.8487 13.646 65.1111L20.119 74.4269C34.5957 49.6285 53.7521 35.8516 80.4312 31.0406L74.4394 11.7529Z" fill="#697D7F"/>
<path d="M124.473 31.6966C151.852 36.3327 171.052 50.6344 185.135 74.8206C185.441 75.3891 186.228 75.3891 186.622 74.8643L193.095 65.5047L204.291 65.3735C204.947 65.3735 205.341 64.7175 205.079 64.1052C197.906 48.8412 182.686 33.621 168.471 24.8738C156.663 17.6136 145.947 13.2399 130.989 10.7032L124.473 31.6966Z" fill="white"/>
<path d="M185.879 76.1325C185.835 76.1325 185.835 76.1325 185.791 76.1325C185.179 76.0888 184.654 75.7827 184.348 75.2578C170.002 50.6343 150.89 37.0761 124.298 32.5713C124.036 32.5275 123.817 32.3963 123.686 32.1776C123.555 31.959 123.511 31.6965 123.598 31.4779L130.115 10.5282C130.246 10.0908 130.684 9.87216 131.077 9.91589C145.379 12.3651 156.313 16.5201 168.865 24.2176C184.523 33.8396 198.999 49.366 205.779 63.7989C206.041 64.3238 205.997 64.9798 205.691 65.4609C205.385 65.9857 204.816 66.2919 204.248 66.2919L193.489 66.4231L187.278 75.389C186.972 75.8264 186.447 76.1325 185.879 76.1325ZM125.566 30.9968C152.202 35.764 171.402 49.5846 185.835 74.3831L192.308 65.0673C192.483 64.8486 192.745 64.6736 193.008 64.6736L204.204 64.5424C197.556 50.4156 183.298 35.1517 167.947 25.7047C155.832 18.2258 145.204 14.1583 131.515 11.7528L125.566 30.9968Z" fill="#697D7F"/>
<path d="M23.1361 60.2125L22.0427 61.6995L14.4326 56.1013L15.526 54.6143L23.1361 60.2125Z" fill="#262D2D"/>
<path d="M21.2117 54.177L25.2355 57.5009L24.1858 58.7693L16.8818 52.7774L17.9315 51.5091L23.5297 53.3023L19.3311 49.8471L20.3807 48.5787L27.6847 54.5269L26.635 55.7952L21.2117 54.177Z" fill="#262D2D"/>
<path d="M24.6669 43.9427C25.2792 43.2867 26.1977 43.2867 26.81 43.899L31.4023 48.3163C32.0584 48.9286 32.0584 49.8471 31.4461 50.5031L28.8219 53.2585L21.999 46.7418L24.6669 43.9427ZM25.8478 45.6047C25.6729 45.4297 25.4542 45.4297 25.2792 45.6047L24.492 46.4357L28.9968 50.7656L29.7841 49.9346C29.959 49.7596 29.9153 49.5409 29.7841 49.366L25.8478 45.6047Z" fill="#262D2D"/>
<path d="M28.8652 39.9189L34.026 45.6921C34.0698 45.7358 34.1573 45.7358 34.201 45.7358L35.1195 44.9048C35.1632 44.8611 35.1632 44.7736 35.1195 44.7299L29.9586 38.9567L31.3581 37.6884L36.9126 43.8989C37.35 44.38 37.3063 45.036 36.8252 45.4734L34.5946 47.4853C34.1135 47.9226 33.4575 47.8789 33.0201 47.3978L27.4219 41.1872L28.8652 39.9189Z" fill="#262D2D"/>
<path d="M37.7878 42.4993L39.7559 41.0123C39.8434 40.9686 39.7997 40.8811 39.7997 40.8374L38.5313 39.2191C38.4876 39.1754 38.4001 39.1317 38.3564 39.1754L37.2192 40.0501C36.7381 40.4 36.1696 40.3125 35.776 39.8752L33.6329 37.076C33.283 36.5949 33.3267 36.0264 33.8078 35.6328L36.4757 33.5771L37.4379 34.8455L35.5573 36.2888C35.5135 36.3325 35.5135 36.42 35.5573 36.5075L36.7381 38.0382C36.7819 38.082 36.8694 38.082 36.9131 38.082L38.0502 37.2073C38.5313 36.8574 39.0999 36.9011 39.4935 37.3822L41.6803 40.1813C42.0302 40.6624 41.9428 41.2747 41.5054 41.6246L38.75 43.724L37.7878 42.4993Z" fill="#262D2D"/>
<path d="M41.6366 30.0784L42.5551 31.3905L41.2867 32.2652L45.6603 38.7819L44.0858 39.8315L39.7122 33.3586L38.4439 34.2333L37.5254 32.9212L41.6366 30.0784Z" fill="#262D2D"/>
<path d="M46.6233 27.1042C47.1918 26.7543 47.8042 26.9293 48.154 27.4978L50.2096 31.0405C50.5158 31.5216 50.4283 32.0901 50.0347 32.3963L52.3527 34.6706L50.7345 35.589L48.4602 33.3585L47.8479 33.7084L49.4224 36.3763L47.8042 37.3385L42.9932 29.2035L46.6233 27.1042ZM46.842 28.9849C46.7982 28.9411 46.7107 28.8974 46.667 28.9411L45.4424 29.6409L47.0606 32.44L48.2853 31.7402C48.329 31.6965 48.329 31.609 48.329 31.5653L46.842 28.9849Z" fill="#262D2D"/>
<path d="M55.4132 33.1835L53.7949 34.0145L49.5088 25.5734L51.127 24.7424L55.4132 33.1835Z" fill="#262D2D"/>
<path d="M61.7554 30.297L60.0496 31.0405L59 28.635L57.6441 29.2473L58.6938 31.6528L56.9881 32.3963L53.6204 24.655C53.4017 24.0864 53.5767 23.5616 54.1453 23.2992L57.0756 22.0308C57.6441 21.8121 58.169 21.9871 58.4314 22.5556L61.7554 30.297ZM58.3439 27.2354L56.9444 24.0427C56.9006 23.9115 56.7694 23.8677 56.6382 23.9552L55.7198 24.3488C55.5885 24.3926 55.5448 24.5238 55.5885 24.655L56.9881 27.8477L58.3439 27.2354Z" fill="#262D2D"/>
<path d="M60.1367 20.8062L61.8862 20.1501L64.5103 27.4978L66.6097 26.7543L67.1783 28.2851L63.2857 29.6846L60.1367 20.8062Z" fill="#262D2D"/>
<path d="M141.793 23.4741L139.912 28.635L138.294 28.0664L141.487 19.188L143.149 19.8003L143.061 24.5238L145.948 20.8062L147.697 21.4185L144.504 30.297L142.799 29.6847L144.679 24.4801L142.449 27.148L141.793 26.9293V23.4741Z" fill="#262D2D"/>
<path d="M149.752 22.2495L153.82 24.0864L153.164 25.5735L150.802 24.5238L149.883 26.6231L151.851 27.4979L151.195 28.9412L149.227 28.0664L148.265 30.2095L150.627 31.2592L149.971 32.7462L145.903 30.9093L149.752 22.2495Z" fill="#262D2D"/>
<path d="M157.144 32.4839L156.007 34.6707C155.701 35.2393 155.089 35.4579 154.476 35.1518L151.852 33.7522C151.283 33.4461 151.109 32.8338 151.415 32.2652L154.826 25.7922C155.132 25.1799 155.745 25.005 156.313 25.3111L158.937 26.7107C159.506 27.0168 159.725 27.6292 159.418 28.2415L158.281 30.3845L156.619 29.5098L157.45 27.8478C157.494 27.7604 157.494 27.6729 157.45 27.6729L156.401 27.1043C156.357 27.0606 156.269 27.1043 156.226 27.1918L153.427 32.5276C153.383 32.6151 153.427 32.6588 153.47 32.7026L154.52 33.2711C154.564 33.3149 154.651 33.2711 154.695 33.2274L155.526 31.6092L157.144 32.4839Z" fill="#262D2D"/>
<path d="M161.037 39.0004L159.462 37.9945L161.518 34.6705L160.118 33.7958L158.063 37.1198L156.488 36.1138L161.518 28.1101L163.092 29.116L160.993 32.4837L162.393 33.3585L164.492 29.9908L166.067 30.9967L161.037 39.0004Z" fill="#262D2D"/>
<path d="M166.372 42.9368L164.885 41.7996L166.416 39.7003L165.192 38.8256L163.661 40.9249L162.174 39.7878L167.203 33.0086C167.553 32.5276 168.122 32.4401 168.603 32.79L171.183 34.7144C171.665 35.0642 171.752 35.6766 171.402 36.1577L166.372 42.9368ZM167.378 38.4319L169.434 35.6328C169.522 35.5016 169.478 35.3704 169.347 35.2829L168.516 34.6706C168.384 34.5832 168.253 34.6269 168.209 34.7144L166.154 37.5135L167.378 38.4319Z" fill="#262D2D"/>
<path d="M172.146 40.9248L168.734 44.8611L167.466 43.7677L173.633 36.6387L174.901 37.7321L172.977 43.2866L176.563 39.1754L177.831 40.2688L171.665 47.3978L170.396 46.3044L172.146 40.9248Z" fill="#262D2D"/>
<path d="M174.027 49.7158L172.715 48.4474L179.319 41.6683L180.631 42.9367L174.027 49.7158Z" fill="#262D2D"/>
<path d="M181.156 52.1651L179.362 53.8271C178.881 54.2644 178.225 54.2644 177.788 53.7833L175.776 51.5965C175.339 51.1154 175.382 50.4594 175.864 50.022L181.243 45.0798C181.724 44.6425 182.38 44.6425 182.818 45.1236L184.829 47.3104C185.267 47.7915 185.267 48.4475 184.742 48.8849L182.949 50.5469L181.68 49.1473L182.993 47.9227C183.036 47.879 183.08 47.7915 183.036 47.7477L182.205 46.873C182.162 46.8293 182.074 46.8293 181.987 46.873L177.569 50.9842C177.526 51.028 177.526 51.1154 177.569 51.1592L178.357 52.0339C178.4 52.0776 178.488 52.0776 178.531 52.0339L179.887 50.8093L181.156 52.1651Z" fill="#262D2D"/>
<path d="M182.555 59.3815L181.375 57.9383L183.386 56.32L182.424 55.1391L180.412 56.7574L179.231 55.3141L185.792 50.022C186.273 49.6284 186.842 49.7159 187.235 50.1532L189.247 52.6462C189.641 53.1273 189.553 53.6958 189.116 54.0895L182.555 59.3815ZM184.611 55.3141L187.323 53.1273C187.41 53.0398 187.41 52.9086 187.323 52.7774L186.71 51.9901C186.623 51.9027 186.492 51.8589 186.404 51.9464L183.693 54.1332L184.611 55.3141Z" fill="#262D2D"/>
<path d="M191.084 55.0516L192.177 56.5824L185.835 61.131L187.147 62.9679L185.835 63.9301L183.43 60.5624L191.084 55.0516Z" fill="#262D2D"/>
<path d="M124.474 31.6965L131.865 26.4919C132.04 26.3607 132.127 26.2295 132.215 26.0108L136.326 11.7528L125.261 8.86621L124.474 31.6965Z" fill="#93B1B2"/>
<path d="M124.473 32.5713C124.342 32.5713 124.167 32.5276 124.08 32.4838C123.774 32.3089 123.599 32.0027 123.599 31.6966L124.342 8.86627C124.342 8.60385 124.473 8.34143 124.692 8.21022C124.911 8.03528 125.173 7.99154 125.436 8.07901L136.501 10.9656C136.719 11.0093 136.938 11.1843 137.026 11.3592C137.157 11.5779 137.157 11.7966 137.113 12.0153L133.002 26.2733C132.871 26.6669 132.652 26.9731 132.346 27.2355L124.954 32.4401C124.823 32.4838 124.648 32.5713 124.473 32.5713ZM126.048 9.95967L125.392 29.9471L131.34 25.7484L135.189 12.3652L126.048 9.95967Z" fill="#697D7F"/>
<path d="M81.5256 31.7403L74.1779 26.5357C74.003 26.4045 73.9155 26.2733 73.828 26.0546L69.7168 11.7966L80.7821 8.91003L81.5256 31.7403Z" fill="#93B1B2"/>
<path d="M81.5251 32.6151C81.3501 32.6151 81.1752 32.5713 81.0003 32.4401L73.6088 27.2355C73.3027 27.0168 73.0403 26.6669 72.9528 26.2733L68.8416 12.0153C68.7978 11.7966 68.7979 11.5342 68.9291 11.3593C69.0603 11.1406 69.2352 11.0094 69.4539 10.9656L80.5192 8.07903C80.7816 7.99156 81.044 8.07903 81.2627 8.21024C81.4814 8.38519 81.6126 8.60387 81.6126 8.86629L82.3561 31.6966C82.3561 32.0465 82.1811 32.3526 81.875 32.4838C81.8312 32.5713 81.7 32.6151 81.5251 32.6151ZM70.8097 12.4089L74.6585 25.7922L80.6066 29.9909L79.9506 10.0034L70.8097 12.4089Z" fill="#697D7F"/>
<path d="M73.6952 25.5298L68.2719 6.85441C68.1407 6.37331 68.4031 5.89221 68.8842 5.761C79.4684 2.96189 90.6649 1.1687 102.999 1.1687H103.261C115.463 1.1687 126.572 2.96189 137.069 5.67353C137.55 5.80474 137.813 6.28584 137.681 6.76694L132.302 25.4423C132.171 25.8797 131.689 26.1421 131.252 26.0546C122.505 23.8241 113.626 22.6432 103.261 22.6432H102.999C92.5018 22.6432 83.5359 23.8241 74.7449 26.0984C74.3075 26.2733 73.8264 25.9671 73.6952 25.5298Z" fill="white"/>
<path d="M74.527 27.0168C73.7835 27.0168 73.0837 26.5357 72.8651 25.7484L67.4418 7.07306C67.3106 6.6357 67.3543 6.1546 67.6167 5.71724C67.8354 5.32361 68.229 5.01746 68.7101 4.88625C80.4752 1.82471 91.7154 0.293945 102.999 0.293945H103.262C114.371 0.293945 125.523 1.78098 137.289 4.84251C137.726 4.97372 138.12 5.23614 138.382 5.6735C138.601 6.06713 138.688 6.54822 138.557 7.02932L133.177 25.7047C132.915 26.6231 131.996 27.148 131.078 26.9293C122.2 24.655 113.365 23.5616 103.305 23.5616H103.043C92.8962 23.5616 83.9741 24.655 75.0081 26.973C74.8332 27.0168 74.6582 27.0168 74.527 27.0168ZM74.527 25.2673C83.6242 22.9056 92.6776 21.7684 102.999 21.7684H103.262C113.452 21.7684 122.418 22.8618 131.472 25.1799L136.851 6.50449C125.217 3.53043 114.24 2.04339 103.262 2.04339H102.999C91.8903 2.04339 80.7813 3.53043 69.1037 6.6357L74.527 25.2673Z" fill="#697D7F"/>
<path d="M80.3438 13.4148L81.2185 18.9256L79.469 19.188L77.8945 9.25989L79.644 8.99747L82.8367 14.377L81.9183 8.60385L83.6677 8.34143L85.2422 18.2696L83.4928 18.532L80.3438 13.4148Z" fill="#262D2D"/>
<path d="M89.2659 17.8322L87.3415 18.0509L86.248 8.07903L88.1725 7.86035L89.2659 17.8322Z" fill="#262D2D"/>
<path d="M96.8326 17.2198L94.8645 17.351L94.6896 14.5957L93.115 14.6831L93.29 17.4385L91.3219 17.5697L90.7533 8.64753C90.7096 7.99149 91.1032 7.55413 91.7592 7.51039L95.1707 7.29171C95.8267 7.24797 96.2641 7.68533 96.3078 8.29764L96.8326 17.2198ZM94.5583 12.9337L94.3397 9.25984C94.3397 9.12863 94.2085 9.04116 94.0772 9.04116L93.0276 9.12863C92.8964 9.12863 92.7652 9.25984 92.8089 9.39105L93.0276 13.0649L94.5583 12.9337Z" fill="#262D2D"/>
<path d="M101.424 11.0093L104.704 10.9656V12.6276H104.092L104.136 15.9515C104.136 16.6513 103.655 17.1324 102.955 17.1324L99.8934 17.1761C99.1936 17.1761 98.7125 16.695 98.7125 15.9953L98.625 8.25395C98.625 7.55417 99.1061 7.02933 99.8059 7.02933L104.092 6.9856V8.77878L100.724 8.82252C100.681 8.82252 100.593 8.90999 100.593 8.99746L100.681 15.2517C100.681 15.3392 100.724 15.3829 100.812 15.3829H102.211C102.299 15.3829 102.343 15.3392 102.343 15.2517L102.299 12.6713H101.468L101.424 11.0093Z" fill="#262D2D"/>
<path d="M111.79 17.3511L109.778 17.2636L109.909 14.5082L108.334 14.4645L108.203 17.2199L106.191 17.1324L106.541 8.21019C106.585 7.55415 107.022 7.16052 107.635 7.16052L111.046 7.29173C111.702 7.33547 112.096 7.77283 112.096 8.42887L111.79 17.3511ZM109.996 12.8462L110.128 9.17239C110.128 9.04118 110.04 8.90997 109.865 8.90997L108.816 8.86624C108.684 8.86624 108.553 8.95371 108.553 9.08492L108.422 12.7588L109.996 12.8462Z" fill="#262D2D"/>
<path d="M119.182 7.94779C119.882 8.03526 120.319 8.5601 120.232 9.25988L119.795 13.6335C119.751 14.2458 119.357 14.6394 118.789 14.6832L119.401 18.0946L117.433 17.9197L116.864 14.552L116.121 14.4645L115.815 17.7447L113.803 17.5698L114.765 7.5979L119.182 7.94779ZM118.22 9.69724C118.22 9.60977 118.176 9.52229 118.133 9.52229L116.602 9.39109L116.252 12.8025L117.783 12.9337C117.826 12.9337 117.914 12.89 117.914 12.8025L118.22 9.69724Z" fill="#262D2D"/>
<path d="M126.616 19.1442L124.648 18.838L125.085 16.1264L123.511 15.864L123.074 18.5756L121.105 18.2695L122.549 9.43474C122.636 8.82244 123.161 8.42881 123.773 8.51628L127.141 9.04112C127.753 9.12859 128.147 9.65343 128.06 10.2657L126.616 19.1442ZM125.348 14.4644L125.916 10.8343C125.96 10.7031 125.829 10.5719 125.698 10.5719L124.648 10.3969C124.517 10.3532 124.386 10.4407 124.342 10.5719L123.773 14.202L125.348 14.4644Z" fill="#262D2D"/>
<path d="M163.267 117.944H167.509L166.94 100.013H163.704L163.267 117.944Z" fill="#93B1B2"/>
<path d="M168.996 117.944H173.239L172.67 100.013H169.433L168.996 117.944Z" fill="#93B1B2"/>
<g opacity="0.5">
<path opacity="0.5" fill-rule="evenodd" clip-rule="evenodd" d="M156.878 92.8701C156.495 92.6251 156.185 92.2552 156.006 91.7901C155.569 90.6967 156.137 89.4283 157.274 88.991C158.388 88.5627 159.585 89.099 160.045 90.1892C160.324 90.3719 160.548 90.6345 160.682 90.9478C160.924 90.8425 161.191 90.7842 161.473 90.7842C162.567 90.7842 163.442 91.659 163.442 92.7524C163.442 93.1563 163.322 93.5303 163.117 93.8415C163.152 93.9872 163.172 94.1391 163.177 94.2956C164.082 94.5114 164.753 95.3234 164.753 96.295C164.753 97.4321 163.834 98.3506 162.697 98.3506C161.905 98.3506 161.219 97.9051 160.876 97.2505C160.683 97.4166 160.458 97.5533 160.205 97.6508C159.067 98.0882 157.843 97.5196 157.405 96.3824C157.187 95.8356 157.22 95.2451 157.449 94.7366C157.247 94.5263 157.081 94.2706 156.968 93.9769C156.838 93.615 156.813 93.2339 156.878 92.8701Z" fill="#C4D8DB"/>
</g>
<g opacity="0.5">
<path opacity="0.5" fill-rule="evenodd" clip-rule="evenodd" d="M166.106 92.5122C165.816 92.3279 165.581 92.0496 165.453 91.7026C165.147 90.8717 165.585 89.9532 166.416 89.647C167.181 89.3651 168.02 89.7136 168.387 90.4193C168.639 90.5601 168.839 90.7844 168.948 91.0548C169.11 90.9931 169.287 90.9591 169.476 90.9591C170.264 90.9591 170.92 91.6152 170.92 92.4024C170.92 92.7205 170.813 93.0171 170.633 93.2577C170.645 93.3283 170.653 93.4003 170.656 93.4733C171.398 93.5962 171.927 94.2366 171.927 94.9828C171.927 95.8576 171.227 96.5136 170.396 96.5136C169.796 96.5136 169.3 96.1849 169.046 95.7106C168.896 95.8474 168.717 95.9581 168.515 96.0325C167.684 96.3387 166.765 95.9013 166.459 95.0704C166.302 94.6444 166.341 94.1954 166.527 93.8178C166.387 93.6654 166.273 93.4834 166.197 93.2771C166.104 93.0236 166.075 92.762 166.106 92.5122Z" fill="#C4D8DB"/>
</g>
<path d="M84.8041 115.408L77.5439 113.702L79.1622 77.8383H83.5358L84.8041 115.408Z" fill="#93B1B2"/>
<g opacity="0.5">
<path d="M87.9095 66.9042C93.3328 64.9361 99.3684 67.8227 105.098 67.2104C108.291 66.8605 111.221 65.4172 114.195 64.28C117.169 63.1429 120.449 62.2244 123.555 63.0117C126.66 63.7989 129.415 66.773 128.934 69.922C128.672 71.6715 127.447 73.2022 125.96 74.1207C124.473 75.0829 122.68 75.4765 120.93 75.6952C117.563 76.0888 114.064 75.6077 110.915 74.3831C108.815 73.5521 106.891 72.415 104.792 71.6715C100.199 70.0532 95.8258 69.1348 90.9711 69.5721C88.8717 69.7471 86.2038 70.753 84.2357 72.3712C82.8799 73.5084 81.9177 74.733 81.5678 76.395C81.4803 76.4387 81.3928 76.4387 81.3491 76.395C80.9117 72.3712 84.3669 68.1726 87.9095 66.9042Z" fill="#C4D8DB"/>
</g>
<path d="M112.182 92.8834C112.007 86.979 114.938 81.7744 114.938 81.7744H103.566H102.385H91.014C91.014 81.7744 93.9444 86.979 93.7694 92.8834C93.6382 97.6944 86.5967 120 86.5967 120H119.399C119.399 120 112.357 97.6944 112.182 92.8834Z" fill="#93B1B2"/>
<path d="M113.844 84.2236H92.1074C92.1949 84.486 92.3261 84.7922 92.4136 85.0983H113.494C113.626 84.7922 113.757 84.486 113.844 84.2236Z" fill="white"/>
<path d="M113.145 86.3667H92.8516C92.939 86.6291 93.0265 86.9353 93.0702 87.2414H112.883C112.97 86.9353 113.058 86.6291 113.145 86.3667Z" fill="white"/>
<path d="M95.0383 97.6508H87.1221V115.014H95.0383V97.6508Z" fill="#697D7F"/>
<path d="M90.4027 98.9629H88.4346V102.549H90.4027V98.9629Z" fill="#93B1B2"/>
<path d="M93.7269 98.9629H91.7588V102.549H93.7269V98.9629Z" fill="#93B1B2"/>
<path d="M90.4027 103.687H88.4346V107.273H90.4027V103.687Z" fill="#93B1B2"/>
<path d="M93.7269 103.687H91.7588V107.273H93.7269V103.687Z" fill="#93B1B2"/>
<path d="M90.4027 108.41H88.4346V111.996H90.4027V108.41Z" fill="#93B1B2"/>
<path d="M93.7269 108.41H91.7588V111.996H93.7269V108.41Z" fill="#93B1B2"/>
<path d="M45.5293 79.719L46.2291 73.8146L46.8414 79.719H45.5293Z" fill="#93B1B2"/>
<path d="M47.5845 79.719H44.8291V80.1126H47.5845V79.719Z" fill="#93B1B2"/>
<path d="M46.9282 76.4825H45.3975V76.8762H46.9282V76.4825Z" fill="#93B1B2"/>
<path d="M50.6465 92.796H46.3604V93.4521H50.6465V92.796Z" fill="#93B1B2"/>
<path d="M46.8414 80.1125H45.5293V120H46.8414V80.1125Z" fill="#93B1B2"/>
<path d="M65.9099 90.7404C65.8662 89.3409 64.2042 88.2037 62.1049 88.2037C60.0055 88.2037 58.2998 89.3409 58.2998 90.7404V95.945H65.9537L65.9099 90.7404Z" fill="#93B1B2"/>
<path d="M57.2937 90.7404C57.25 89.3409 55.588 88.2037 53.4887 88.2037C51.3893 88.2037 49.6836 89.3409 49.6836 90.7404V120H57.2937V90.7404Z" fill="#93B1B2"/>
<path d="M112.532 112.215H73.7383V120H112.532V112.215Z" fill="#697D7F"/>
<path d="M82.8361 113.702H77.7627V115.32H82.8361V113.702Z" fill="#93B1B2"/>
<path d="M89.8781 113.702H84.8047V115.32H89.8781V113.702Z" fill="#93B1B2"/>
<path d="M96.9631 113.702H91.8896V115.32H96.9631V113.702Z" fill="#93B1B2"/>
<path d="M104.004 113.702H98.9307V115.32H104.004V113.702Z" fill="#93B1B2"/>
<path d="M111.09 113.702H106.017V115.32H111.09V113.702Z" fill="#93B1B2"/>
<path d="M73.914 103.293H43.8672V120H73.914V103.293Z" fill="#697D7F"/>
<path d="M74.9633 102.462H42.7734V103.293H74.9633V102.462Z" fill="#697D7F"/>
<path d="M58.6056 112.127H55.3691V120H58.6056V112.127Z" fill="#93B1B2"/>
<path d="M62.4103 112.127H59.1738V120H62.4103V112.127Z" fill="#93B1B2"/>
<path d="M52.5702 112.127H45.3975V117.245H52.5702V112.127Z" fill="#93B1B2"/>
<path d="M72.3827 112.127H65.21V117.245H72.3827V112.127Z" fill="#93B1B2"/>
<path d="M50.1213 104.867H45.0479V106.486H50.1213V104.867Z" fill="white"/>
<path d="M57.2941 104.867H52.2207V106.486H57.2941V104.867Z" fill="white"/>
<path d="M64.5099 104.867H59.4365V106.486H64.5099V104.867Z" fill="white"/>
<path d="M71.6837 104.867H66.6104V106.486H71.6837V104.867Z" fill="white"/>
<path d="M73.914 108.454H43.8672V109.285H73.914V108.454Z" fill="#93B1B2"/>
<path d="M72.0327 96.6886H55.5879V102.462H72.0327V96.6886Z" fill="#697D7F"/>
<path d="M72.9948 95.9888H54.7568V96.6885H72.9948V95.9888Z" fill="#697D7F"/>
<path d="M57.381 97.6508H56.5938V99.7938H57.381V97.6508Z" fill="white"/>
<path d="M60.0919 97.6508H59.3047V99.7938H60.0919V97.6508Z" fill="white"/>
<path d="M62.8038 97.6508H62.0166V99.7938H62.8038V97.6508Z" fill="white"/>
<path d="M65.5597 97.6508H64.7725V99.7938H65.5597V97.6508Z" fill="white"/>
<path d="M68.2707 97.6508H67.4834V99.7938H68.2707V97.6508Z" fill="white"/>
<path d="M70.9835 97.6508H70.1963V99.7938H70.9835V97.6508Z" fill="white"/>
<path d="M54.6254 100.756H49.8145V102.462H54.6254V100.756Z" fill="#697D7F"/>
<path d="M49.2464 101.631H47.8906V102.462H49.2464V101.631Z" fill="#697D7F"/>
<path d="M155.525 119.869V107.01L149.314 104.211V119.913L155.525 119.869Z" fill="#93B1B2"/>
<path d="M149.665 119.869V107.01L143.454 104.211V119.913L149.665 119.869Z" fill="#93B1B2"/>
<path d="M143.76 119.869V107.01L137.55 104.211V119.913L143.76 119.869Z" fill="#93B1B2"/>
<path d="M137.899 111.122V98.2631L131.732 95.464V111.165L137.899 111.122Z" fill="#93B1B2"/>
<path d="M132.039 111.122V98.2631L125.828 95.464V111.165L132.039 111.122Z" fill="#93B1B2"/>
<path d="M126.134 111.122V98.2631L119.924 95.464V111.165L126.134 111.122Z" fill="#93B1B2"/>
<path d="M159.767 109.503H116.644V120H159.767V109.503Z" fill="#697D7F"/>
<path d="M178.836 116.151H111.745V120H178.836V116.151Z" fill="#697D7F"/>
<path d="M152.376 111.953H149.577V114.752H152.376V111.953Z" fill="white"/>
<path d="M156.618 111.953H153.819V114.752H156.618V111.953Z" fill="#93B1B2"/>
<path d="M148.177 111.953H145.378V114.752H148.177V111.953Z" fill="#93B1B2"/>
<path d="M143.978 111.953H141.179V114.752H143.978V111.953Z" fill="#93B1B2"/>
<path d="M139.78 111.953H136.98V114.752H139.78V111.953Z" fill="#93B1B2"/>
<path d="M135.581 111.953H132.782V114.752H135.581V111.953Z" fill="#93B1B2"/>
<path d="M131.383 111.953H128.584V114.752H131.383V111.953Z" fill="#93B1B2"/>
<path d="M127.184 111.953H124.385V114.752H127.184V111.953Z" fill="#93B1B2"/>
<path d="M122.942 111.953H120.143V114.752H122.942V111.953Z" fill="white"/>
<path d="M177 112.346H158.675V116.895H177V112.346Z" fill="#697D7F"/>
<path d="M135.232 105.48H121.937V106.748H135.232V105.48Z" fill="white"/>
<path d="M131.733 102.505H121.937V103.774H131.733V102.505Z" fill="white"/>
<path d="M34.7256 117.376V103.205L41.7234 99.619V117.376H34.7256Z" fill="#93B1B2"/>
<path d="M37.7878 104.167H36.3008V106.66H37.7878V104.167Z" fill="white"/>
<path d="M40.1062 104.167H38.6191V106.66H40.1062V104.167Z" fill="white"/>
<path d="M37.7878 108.016H36.3008V110.509H37.7878V108.016Z" fill="#697D7F"/>
<path d="M40.1062 108.016H38.6191V110.509H40.1062V108.016Z" fill="#697D7F"/>
<path d="M27.9902 117.988V103.818L35.0318 100.275V117.988H27.9902Z" fill="#93B1B2"/>
<path d="M31.0515 104.78H29.5645V107.273H31.0515V104.78Z" fill="white"/>
<path d="M33.4128 104.78H31.9258V107.273H33.4128V104.78Z" fill="white"/>
<path d="M31.0515 108.629H29.5645V111.121H31.0515V108.629Z" fill="#697D7F"/>
<path d="M33.4128 108.629H31.9258V111.121H33.4128V108.629Z" fill="#697D7F"/>
<path d="M43.9978 114.708H26.9844V120H43.9978V114.708Z" fill="#697D7F"/>
<path d="M30.0457 116.02H29.3896V118.076H30.0457V116.02Z" fill="#93B1B2"/>
<path d="M31.489 116.02H30.833V118.076H31.489V116.02Z" fill="#93B1B2"/>
<path d="M32.9754 116.02H32.3193V118.076H32.9754V116.02Z" fill="#93B1B2"/>
<path d="M34.4197 116.02H33.7637V118.076H34.4197V116.02Z" fill="#93B1B2"/>
<path d="M35.8631 116.02H35.207V118.076H35.8631V116.02Z" fill="#93B1B2"/>
<path d="M37.3064 116.02H36.6504V118.076H37.3064V116.02Z" fill="#93B1B2"/>
<path d="M38.7488 116.02H38.0928V118.076H38.7488V116.02Z" fill="#93B1B2"/>
<path d="M40.1922 116.02H39.5361V118.076H40.1922V116.02Z" fill="#93B1B2"/>
<path d="M41.6355 116.02H40.9795V118.076H41.6355V116.02Z" fill="#93B1B2"/>
</g>
<defs>
<clipPath id="clip0">
<rect width="205.998" height="119.706" fill="white" transform="translate(0 0.293945)"/>
</clipPath>
</defs>
</svg>
