<svg width="920" height="230" viewBox="0 0 920 230" preserveAspectRatio="none" fill="none" xmlns="http://www.w3.org/2000/svg">
<path d="M915.605 154.035C915.43 150.351 911.386 139.474 900.31 139.474C887.652 139.474 883.257 150.351 883.257 154.035V229.824H915.605V154.035Z" fill="#93B1B2"/>
<path d="M917.89 155.263H880.971V157.193H917.89V155.263Z" fill="#697D7F"/>
<path d="M888.003 151.053H886.245V154.035H888.003V151.053Z" fill="#697D7F"/>
<path d="M901.189 151.053H899.431V154.035H901.189V151.053Z" fill="#697D7F"/>
<path d="M913.32 151.053H911.562V154.035H913.32V151.053Z" fill="#697D7F"/>
<path d="M920 214.211H858.819V229.825H920V214.211Z" fill="#697D7F"/>
<path d="M836.316 229.825H819.614L822.076 132.807H834.382L836.316 229.825Z" fill="#93B1B2"/>
<path d="M836.316 133.158C836.316 133.684 835.789 134.211 835.261 134.211H821.021C820.493 134.211 819.966 133.684 819.966 133.158C819.966 132.632 820.493 132.105 821.021 132.105H835.261C835.965 132.281 836.316 132.632 836.316 133.158Z" fill="#93B1B2"/>
<path d="M851.611 175.088C851.611 181.053 841.062 185.965 827.877 185.965C814.867 185.965 804.143 181.053 804.143 175.088C804.143 169.123 814.691 164.21 827.877 164.21C841.062 164.21 851.611 169.123 851.611 175.088Z" fill="#697D7F"/>
<path d="M858.819 168.947H796.935V210.175H858.819V168.947Z" fill="#93B1B2"/>
<path d="M870.774 172.982H780.937V229.825H870.774V172.982Z" fill="#697D7F"/>
<path d="M795.353 181.404H786.914V189.825H795.353V181.404Z" fill="#93B1B2"/>
<path d="M808.714 181.404H800.275V189.825H808.714V181.404Z" fill="white"/>
<path d="M822.076 181.404H813.637V189.825H822.076V181.404Z" fill="white"/>
<path d="M835.437 181.404H826.998V189.825H835.437V181.404Z" fill="#93B1B2"/>
<path d="M848.798 181.404H840.359V189.825H848.798V181.404Z" fill="#93B1B2"/>
<path d="M862.159 181.404H853.721V189.825H862.159V181.404Z" fill="#93B1B2"/>
<path d="M795.353 195.965H786.914V204.386H795.353V195.965Z" fill="#93B1B2"/>
<path d="M808.714 195.965H800.275V204.386H808.714V195.965Z" fill="#93B1B2"/>
<path d="M822.076 195.965H813.637V204.386H822.076V195.965Z" fill="#93B1B2"/>
<path d="M835.437 195.965H826.998V204.386H835.437V195.965Z" fill="#93B1B2"/>
<path d="M848.798 195.965H840.359V204.386H848.798V195.965Z" fill="#93B1B2"/>
<path d="M862.159 195.965H853.721V204.386H862.159V195.965Z" fill="#93B1B2"/>
<path d="M795.353 210.351H786.914V218.772H795.353V210.351Z" fill="#93B1B2"/>
<path d="M808.714 210.351H800.275V218.772H808.714V210.351Z" fill="#93B1B2"/>
<path d="M822.076 210.351H813.637V218.772H822.076V210.351Z" fill="#93B1B2"/>
<path d="M835.437 210.351H826.998V218.772H835.437V210.351Z" fill="#93B1B2"/>
<path d="M848.798 210.351H840.359V218.772H848.798V210.351Z" fill="#93B1B2"/>
<path d="M862.159 210.351H853.721V218.772H862.159V210.351Z" fill="#93B1B2"/>
<path opacity="0.5" d="M863.214 85.2631C860.929 84.3859 858.643 85.0877 857.061 86.6666C856.534 86.1403 855.831 85.7894 854.952 85.4386C851.611 84.2105 847.919 85.9649 846.513 89.2982C846.161 90.3508 845.985 91.5789 846.161 92.6315C845.634 92.2807 845.106 91.9298 844.403 91.5789C840.711 90.1754 836.492 92.1052 835.085 95.7894C834.382 97.7193 834.558 99.8245 835.437 101.403C832.448 101.93 830.163 104.561 830.163 107.719C830.163 108.947 830.514 110.175 831.218 111.228C831.042 111.754 831.042 112.281 831.042 112.807C827.877 113.509 825.592 116.316 825.592 119.474C825.592 123.333 828.756 126.316 832.448 126.316C835.964 126.316 838.953 123.509 839.305 120.175C842.645 119.649 845.282 116.842 845.458 113.333C845.81 113.509 845.985 113.684 846.337 113.86C850.029 115.263 854.248 113.333 855.655 109.649C856.358 107.544 856.182 105.439 855.127 103.509C856.885 102.807 858.292 101.228 858.995 99.4736C859.347 98.2456 859.522 97.0175 859.347 95.9649C862.335 96.8421 865.5 95.4386 866.555 92.4561C867.785 89.8245 866.203 86.4912 863.214 85.2631Z" fill="#C4D8DB"/>
<path d="M149.085 95.9648H98.9795V196.842H149.085V95.9648Z" fill="#93B1B2"/>
<path d="M141.525 106.491H106.539V114.035H141.525V106.491Z" fill="#697D7F"/>
<path d="M141.525 116.842H106.539V124.386H141.525V116.842Z" fill="white"/>
<path d="M141.525 127.193H106.539V134.737H141.525V127.193Z" fill="#697D7F"/>
<path d="M141.525 137.544H106.539V145.088H141.525V137.544Z" fill="#697D7F"/>
<path d="M141.525 147.895H106.539V155.438H141.525V147.895Z" fill="#697D7F"/>
<path d="M141.525 158.245H106.539V165.789H141.525V158.245Z" fill="#697D7F"/>
<path d="M15.2949 229.825V183.684L37.6225 173.684V230L15.2949 229.825Z" fill="#93B1B2"/>
<path d="M36.3916 229.825V183.684L58.7191 173.684V230L36.3916 229.825Z" fill="#93B1B2"/>
<path d="M57.6641 229.825V183.684L79.9916 173.684V230L57.6641 229.825Z" fill="#93B1B2"/>
<path d="M78.7607 229.825V183.684L101.088 173.684V230L78.7607 229.825Z" fill="#93B1B2"/>
<path d="M100.034 229.825V183.684L122.362 173.684V230L100.034 229.825Z" fill="#93B1B2"/>
<path d="M121.131 229.825V183.684L143.458 173.684V230L121.131 229.825Z" fill="#93B1B2"/>
<path d="M155.414 192.105H0V229.825H155.414V192.105Z" fill="#697D7F"/>
<path d="M36.5679 200.877H26.5469V210.877H36.5679V200.877Z" fill="white"/>
<path d="M21.4488 200.877H11.4277V210.877H21.4488V200.877Z" fill="#93B1B2"/>
<path d="M51.688 200.877H41.667V210.877H51.688V200.877Z" fill="#93B1B2"/>
<path d="M66.8072 200.877H56.7861V210.877H66.8072V200.877Z" fill="#93B1B2"/>
<path d="M81.9273 200.877H71.9062V210.877H81.9273V200.877Z" fill="#93B1B2"/>
<path d="M97.2212 200.877H87.2002V210.877H97.2212V200.877Z" fill="#93B1B2"/>
<path d="M112.341 200.877H102.32V210.877H112.341V200.877Z" fill="#93B1B2"/>
<path d="M127.461 200.877H117.439V210.877H127.461V200.877Z" fill="#93B1B2"/>
<path d="M142.58 200.877H132.559V210.877H142.58V200.877Z" fill="white"/>
<path d="M706.395 221.579H723.272L721.162 149.649H707.977L706.395 221.579Z" fill="#93B1B2"/>
<path d="M729.249 221.579H746.302L744.017 149.649H731.007L729.249 221.579Z" fill="#93B1B2"/>
<path opacity="0.5" fill-rule="evenodd" clip-rule="evenodd" d="M677.034 116.667C677.761 118.554 679.03 120.05 680.591 121.032C680.358 122.482 680.5 123.998 681.077 125.439C681.517 126.581 682.156 127.58 682.938 128.409C681.961 130.466 681.77 132.867 682.66 135.088C684.418 139.649 689.341 141.93 693.912 140.176C694.932 139.784 695.838 139.235 696.611 138.568C697.991 141.195 700.749 142.983 703.933 142.983C708.504 142.983 712.196 139.298 712.196 134.737C712.196 130.839 709.499 127.581 705.862 126.716C705.842 126.088 705.758 125.478 705.616 124.893C706.442 123.645 706.921 122.145 706.921 120.526C706.921 116.14 703.405 112.632 699.01 112.632C697.934 112.632 696.91 112.842 695.978 113.224C695.399 111.907 694.418 110.818 693.205 110.094C691.31 105.823 686.557 103.741 682.132 105.439C677.737 107.193 675.276 112.281 677.034 116.667ZM719.228 129.825C718.608 128.145 718.702 126.376 719.398 124.878C718.798 124.251 718.315 123.494 717.997 122.632C717.611 121.641 717.519 120.599 717.678 119.591C716.49 118.853 715.529 117.725 715.009 116.316C713.778 112.983 715.536 109.298 718.876 108.07C721.951 106.94 725.325 108.337 726.801 111.166C727.824 111.735 728.631 112.645 729.067 113.742C729.725 113.479 730.439 113.333 731.182 113.333C734.347 113.333 736.984 115.965 736.984 119.123C736.984 120.414 736.543 121.618 735.805 122.589C735.859 122.86 735.896 123.137 735.915 123.418C738.898 123.908 741.027 126.478 741.027 129.474C741.027 132.983 738.214 135.614 734.874 135.614C732.509 135.614 730.542 134.344 729.507 132.499C728.928 132.999 728.25 133.405 727.491 133.684C724.151 134.912 720.459 133.158 719.228 129.825Z" fill="#C4D8DB"/>
<path d="M390.82 211.404L361.636 204.562L368.141 60.7019H385.897L390.82 211.404Z" fill="#93B1B2"/>
<path opacity="0.5" d="M403.302 16.8422C425.102 8.94745 449.363 20.5264 472.394 18.0703C485.228 16.6667 497.007 10.8773 508.962 6.31587C520.917 1.75446 534.102 -1.92975 546.585 1.22815C559.067 4.38604 570.143 16.3159 568.209 28.9474C567.154 35.965 562.232 42.1053 556.254 45.7896C550.277 49.6492 543.069 51.2281 536.036 52.1053C522.499 53.6843 508.435 51.7545 495.776 46.8422C487.338 43.5089 479.602 38.9474 471.163 35.965C452.704 29.4738 435.123 25.7896 415.608 27.5439C407.169 28.2457 396.445 32.2808 388.534 38.772C383.084 43.3334 379.216 48.2457 377.81 54.9124C377.458 55.0878 377.106 55.0878 376.931 54.9124C375.348 38.772 389.061 21.9299 403.302 16.8422Z" fill="#C4D8DB"/>
<path d="M501.051 121.053C500.348 97.3685 512.127 76.4913 512.127 76.4913H466.417H461.671H415.961C415.961 76.4913 427.74 97.3685 427.037 121.053C426.509 140.351 398.204 229.825 398.204 229.825H530.235C530.06 229.825 501.579 140.351 501.051 121.053Z" fill="#93B1B2"/>
<path d="M507.732 86.3159H420.355C420.707 87.3686 421.234 88.5966 421.586 89.8247H506.325C506.853 88.5966 507.204 87.3686 507.732 86.3159Z" fill="white"/>
<path d="M504.744 94.9124H423.169C423.521 95.965 423.872 97.1931 424.048 98.4211H503.689C504.04 97.1931 504.392 95.965 504.744 94.9124Z" fill="white"/>
<path d="M431.959 140.176H400.138V209.825H431.959V140.176Z" fill="#697D7F"/>
<path d="M413.498 145.439H405.587V159.825H413.498V145.439Z" fill="#93B1B2"/>
<path d="M426.684 145.439H418.772V159.825H426.684V145.439Z" fill="#93B1B2"/>
<path d="M413.498 164.386H405.587V178.772H413.498V164.386Z" fill="#93B1B2"/>
<path d="M426.684 164.386H418.772V178.772H426.684V164.386Z" fill="#93B1B2"/>
<path d="M413.498 183.333H405.587V197.719H413.498V183.333Z" fill="#93B1B2"/>
<path d="M426.684 183.333H418.772V197.719H426.684V183.333Z" fill="#93B1B2"/>
<path d="M232.944 68.2456L235.757 44.5614L238.394 68.2456H232.944Z" fill="#93B1B2"/>
<path d="M241.384 68.2456H230.308V69.8245H241.384V68.2456Z" fill="#93B1B2"/>
<path d="M238.57 55.2631H232.417V56.842H238.57V55.2631Z" fill="#93B1B2"/>
<path d="M253.69 120.702H236.461V123.333H253.69V120.702Z" fill="#93B1B2"/>
<path d="M238.219 69.8246H232.944V229.825H238.219V69.8246Z" fill="#93B1B2"/>
<path d="M314.871 112.456C314.695 106.842 308.014 102.281 299.576 102.281C291.137 102.281 284.28 106.842 284.28 112.456V133.333H315.047L314.871 112.456Z" fill="#93B1B2"/>
<path d="M280.413 112.456C280.237 106.842 273.556 102.281 265.117 102.281C256.679 102.281 249.822 106.842 249.822 112.456V229.825H280.589L280.413 112.456Z" fill="#93B1B2"/>
<path d="M502.458 198.597H346.517V229.825H502.458V198.597Z" fill="#697D7F"/>
<path d="M382.908 204.562H362.515V211.053H382.908V204.562Z" fill="#93B1B2"/>
<path d="M411.389 204.562H390.995V211.053H411.389V204.562Z" fill="#93B1B2"/>
<path d="M439.694 204.562H419.301V211.053H439.694V204.562Z" fill="#93B1B2"/>
<path d="M468.175 204.562H447.781V211.053H468.175V204.562Z" fill="#93B1B2"/>
<path d="M496.48 204.562H476.086V211.053H496.48V204.562Z" fill="#93B1B2"/>
<path d="M347.044 162.807H226.265V229.825H347.044V162.807Z" fill="#697D7F"/>
<path d="M351.439 159.474H222.045V162.807H351.439V159.474Z" fill="#697D7F"/>
<path d="M285.512 198.246H272.502V229.825H285.512V198.246Z" fill="#93B1B2"/>
<path d="M300.982 198.246H287.973V229.825H300.982V198.246Z" fill="#93B1B2"/>
<path d="M261.25 198.246H232.418V218.772H261.25V198.246Z" fill="#93B1B2"/>
<path d="M340.891 198.246H312.059V218.772H340.891V198.246Z" fill="#93B1B2"/>
<path d="M251.404 169.123H231.011V175.614H251.404V169.123Z" fill="white"/>
<path d="M280.413 169.123H260.02V175.614H280.413V169.123Z" fill="white"/>
<path d="M309.245 169.123H288.852V175.614H309.245V169.123Z" fill="white"/>
<path d="M338.253 169.123H317.859V175.614H338.253V169.123Z" fill="white"/>
<path d="M347.044 183.509H226.265V186.842H347.044V183.509Z" fill="#93B1B2"/>
<path d="M339.66 136.316H273.557V159.474H339.66V136.316Z" fill="#697D7F"/>
<path d="M343.527 133.509H270.216V136.316H343.527V133.509Z" fill="#697D7F"/>
<path d="M280.588 140.176H277.424V148.772H280.588V140.176Z" fill="white"/>
<path d="M291.664 140.176H288.499V148.772H291.664V140.176Z" fill="white"/>
<path d="M302.564 140.176H299.399V148.772H302.564V140.176Z" fill="white"/>
<path d="M313.464 140.176H310.3V148.772H313.464V140.176Z" fill="white"/>
<path d="M324.365 140.176H321.2V148.772H324.365V140.176Z" fill="white"/>
<path d="M335.264 140.176H332.1V148.772H335.264V140.176Z" fill="white"/>
<path d="M269.513 152.632H250.174V159.474H269.513V152.632Z" fill="#697D7F"/>
<path d="M247.888 156.14H242.438V159.474H247.888V156.14Z" fill="#697D7F"/>
<path d="M675.1 229.298V177.719L650.312 166.491V229.474L675.1 229.298Z" fill="#93B1B2"/>
<path d="M651.542 229.298V177.719L626.577 166.491V229.474L651.542 229.298Z" fill="#93B1B2"/>
<path d="M627.808 229.298V177.719L603.02 166.491V229.474L627.808 229.298Z" fill="#93B1B2"/>
<path d="M604.25 194.211V142.632L579.461 131.404V194.386L604.25 194.211Z" fill="#93B1B2"/>
<path d="M580.692 194.211V142.632L555.728 131.404V194.386L580.692 194.211Z" fill="#93B1B2"/>
<path d="M556.957 194.211V142.632L532.168 131.404V194.386L556.957 194.211Z" fill="#93B1B2"/>
<path d="M692.329 187.719H518.982V229.825H692.329V187.719Z" fill="#697D7F"/>
<path d="M768.806 214.386H499.117V229.825H768.806V214.386Z" fill="#697D7F"/>
<path d="M662.618 197.544H651.366V208.772H662.618V197.544Z" fill="white"/>
<path d="M679.496 197.544H668.244V208.772H679.496V197.544Z" fill="#93B1B2"/>
<path d="M645.74 197.544H634.488V208.772H645.74V197.544Z" fill="#93B1B2"/>
<path d="M628.687 197.544H617.436V208.772H628.687V197.544Z" fill="#93B1B2"/>
<path d="M611.809 197.544H600.558V208.772H611.809V197.544Z" fill="#93B1B2"/>
<path d="M594.932 197.544H583.681V208.772H594.932V197.544Z" fill="#93B1B2"/>
<path d="M578.054 197.544H566.803V208.772H578.054V197.544Z" fill="#93B1B2"/>
<path d="M561.177 197.544H549.926V208.772H561.177V197.544Z" fill="#93B1B2"/>
<path d="M544.299 197.544H533.048V208.772H544.299V197.544Z" fill="white"/>
<path d="M761.421 199.123H687.758V217.368H761.421V199.123Z" fill="#697D7F"/>
<path d="M593.701 171.579H540.256V176.667H593.701V171.579Z" fill="white"/>
<path d="M579.637 159.649H540.256V164.737H579.637V159.649Z" fill="white"/>
<path d="M189.521 219.298V162.456L217.826 148.07V219.298H189.521Z" fill="#93B1B2"/>
<path d="M201.826 166.316H195.849V176.316H201.826V166.316Z" fill="white"/>
<path d="M211.32 166.316H205.343V176.316H211.32V166.316Z" fill="white"/>
<path d="M201.826 181.754H195.849V191.754H201.826V181.754Z" fill="#697D7F"/>
<path d="M211.32 181.754H205.343V191.754H211.32V181.754Z" fill="#697D7F"/>
<path d="M162.622 221.754V164.912L190.751 150.702V221.754H162.622Z" fill="#93B1B2"/>
<path d="M174.929 168.772H168.951V178.772H174.929V168.772Z" fill="white"/>
<path d="M184.246 168.772H178.269V178.772H184.246V168.772Z" fill="white"/>
<path d="M174.929 184.211H168.951V194.211H174.929V184.211Z" fill="#697D7F"/>
<path d="M184.246 184.211H178.269V194.211H184.246V184.211Z" fill="#697D7F"/>
<path d="M226.791 208.597H158.402V229.825H226.791V208.597Z" fill="#697D7F"/>
<path d="M170.884 213.86H168.247V222.105H170.884V213.86Z" fill="#93B1B2"/>
<path d="M176.686 213.86H174.049V222.105H176.686V213.86Z" fill="#93B1B2"/>
<path d="M182.487 213.86H179.85V222.105H182.487V213.86Z" fill="#93B1B2"/>
<path d="M188.289 213.86H185.652V222.105H188.289V213.86Z" fill="#93B1B2"/>
<path d="M194.091 213.86H191.454V222.105H194.091V213.86Z" fill="#93B1B2"/>
<path d="M199.892 213.86H197.255V222.105H199.892V213.86Z" fill="#93B1B2"/>
<path d="M205.694 213.86H203.057V222.105H205.694V213.86Z" fill="#93B1B2"/>
<path d="M211.496 213.86H208.858V222.105H211.496V213.86Z" fill="#93B1B2"/>
<path d="M217.297 213.86H214.66V222.105H217.297V213.86Z" fill="#93B1B2"/>
<path d="M162.094 220.175H143.458V229.825H162.094V220.175Z" fill="#697D7F"/>
<path d="M785.683 220.175H759.663V229.825H785.683V220.175Z" fill="#697D7F"/>
<path d="M493.842 181.93C495.073 181.93 496.128 182.982 496.128 184.21V199.649H491.557V184.21C491.557 182.807 492.611 181.93 493.842 181.93Z" fill="#697D7F"/>
<path d="M487.514 175.263C488.745 175.263 489.799 176.316 489.799 177.544V199.649H485.229V177.544C485.229 176.316 486.283 175.263 487.514 175.263Z" fill="#697D7F"/>
</svg>
