<svg width="217" height="47" viewBox="0 0 217 47" fill="none" xmlns="http://www.w3.org/2000/svg">
<g clip-path="url(#clip0)">
<path d="M123.2 0.500024H123.7C123.8 0.500024 123.9 0.600024 123.9 0.700024V11.8C123.9 11.9 123.8 12 123.7 12H123.2C123.1 12 123.1 12 123 11.9L117.1 2.30002C117.1 2.30002 117.1 2.30002 117.1 2.40002V12C117.1 12.1 117 12.2 116.9 12.2H116.4C116.3 12.2 116.2 12.1 116.2 12V0.600024C116.2 0.500024 116.3 0.400024 116.4 0.400024H117C117.1 0.400024 117.1 0.400024 117.2 0.500024L123.1 10.1C123.1 10.1 123.1 10.1 123.1 10V0.600024C123.1 0.500024 123.1 0.500024 123.2 0.500024Z" fill="white" fill-opacity="0.4"/>
<path d="M127.9 11.8V0.600024C127.9 0.500024 128 0.400024 128.1 0.400024H128.6C128.7 0.400024 128.8 0.500024 128.8 0.600024V11.7C128.8 11.8 128.7 11.9 128.6 11.9H128.1C128 11.9 127.9 11.9 127.9 11.8Z" fill="white" fill-opacity="0.4"/>
<path d="M139.301 11.8L138.601 9.60003C138.601 9.60003 138.601 9.60003 138.501 9.60003H133.401H133.301L132.601 11.8C132.601 11.9 132.501 11.9 132.401 11.9H131.801C131.701 11.9 131.601 11.8 131.701 11.7L135.301 0.500024C135.301 0.400024 135.401 0.400024 135.501 0.400024H136.201C136.301 0.400024 136.401 0.400024 136.401 0.500024L140.101 11.7V11.8C140.101 11.9 140.101 11.9 140.001 11.9H139.401C139.401 11.9 139.301 11.9 139.301 11.8ZM133.601 8.80002C133.601 8.80002 133.701 8.80002 133.601 8.80002H138.201C138.201 8.80002 138.201 8.80002 138.301 8.80002C138.301 8.80002 138.301 8.80002 138.301 8.70002L136.001 1.60002L133.601 8.80002Z" fill="white" fill-opacity="0.4"/>
<path d="M144.401 11.6C143.801 11.3 143.401 10.9 143.101 10.4C142.801 9.90002 142.601 9.30002 142.601 8.60003V3.80002C142.601 3.10002 142.801 2.50002 143.101 2.00002C143.401 1.50002 143.901 1.10002 144.401 0.800024C145.001 0.500024 145.601 0.400024 146.401 0.400024C147.101 0.400024 147.801 0.500024 148.301 0.800024C148.901 1.10002 149.301 1.50002 149.601 2.00002C149.901 2.50002 150.101 3.10002 150.101 3.80002V4.00002C150.101 4.10002 150.001 4.20002 149.901 4.20002H149.401C149.301 4.20002 149.201 4.10002 149.201 4.00002V3.70002C149.201 2.90002 148.901 2.30002 148.401 1.80002C147.901 1.30002 147.201 1.10002 146.301 1.10002C145.401 1.10002 144.701 1.30002 144.201 1.80002C143.701 2.30002 143.401 2.90002 143.401 3.80002V8.60003C143.401 9.40003 143.701 10.1 144.201 10.6C144.701 11.1 145.401 11.3 146.301 11.3C147.201 11.3 147.801 11.1 148.401 10.6C148.901 10.1 149.201 9.50002 149.201 8.70002V7.00002C149.201 7.00002 149.201 6.90002 149.101 6.90002H146.501C146.401 6.90002 146.301 6.80002 146.301 6.70002V6.30002C146.301 6.20002 146.401 6.10002 146.501 6.10002H149.801C149.901 6.10002 150.001 6.20002 150.001 6.30002V8.40002C150.001 9.50002 149.701 10.4 149.001 11C148.301 11.6 147.401 12 146.301 12C145.601 12 145.001 11.9 144.401 11.6Z" fill="white" fill-opacity="0.4"/>
<path d="M160.2 11.8L159.5 9.60003C159.5 9.60003 159.5 9.60003 159.4 9.60003H154.3H154.2L153.5 11.8C153.5 11.9 153.4 11.9 153.3 11.9H152.7C152.6 11.9 152.5 11.8 152.6 11.7L156.2 0.500024C156.2 0.400024 156.3 0.400024 156.4 0.400024H157.1C157.2 0.400024 157.3 0.400024 157.3 0.500024L161 11.7V11.8C161 11.9 161 11.9 160.9 11.9H160.3C160.3 11.9 160.3 11.9 160.2 11.8ZM154.6 8.80002H159.2C159.2 8.80002 159.2 8.80002 159.3 8.80002C159.3 8.80002 159.3 8.80002 159.3 8.70002L157 1.60002L154.6 8.80002C154.5 8.80002 154.5 8.80002 154.6 8.80002Z" fill="white" fill-opacity="0.4"/>
<path d="M170.7 11.8L168.2 6.60002C168.2 6.60002 168.2 6.60002 168.1 6.60002H165C165 6.60002 164.9 6.60002 164.9 6.70002V11.8C164.9 11.9 164.8 12 164.7 12H164.2C164.1 12 164 11.9 164 11.8V0.600024C164 0.500024 164.1 0.400024 164.2 0.400024H168.3C169.2 0.400024 170 0.700024 170.5 1.30002C171 1.90002 171.3 2.60002 171.3 3.50002C171.3 4.30002 171.1 4.90002 170.7 5.50002C170.3 6.10002 169.7 6.40002 169 6.50002C168.9 6.50002 168.9 6.50002 169 6.60002L171.5 11.8C171.5 11.8 171.5 11.8 171.5 11.9C171.5 12 171.5 12 171.4 12H170.9C170.8 11.9 170.7 11.9 170.7 11.8ZM164.9 1.30002V5.80002C164.9 5.80002 164.9 5.90002 165 5.90002H168.3C169 5.90002 169.5 5.70002 169.9 5.30002C170.3 4.90002 170.5 4.30002 170.5 3.60002C170.5 2.90002 170.3 2.40002 169.9 1.90002C169.5 1.50002 168.9 1.30002 168.3 1.30002H164.9C164.9 1.20002 165 1.20002 164.9 1.30002Z" fill="white" fill-opacity="0.4"/>
<path d="M181.9 11.8L181.2 9.6C181.2 9.6 181.2 9.6 181.1 9.6H176H175.9L175.2 11.8C175.2 11.9 175.1 11.9 175 11.9H174.4C174.3 11.9 174.2 11.8 174.3 11.7L178 0.6C178 0.5 178.1 0.5 178.2 0.5H178.9C179 0.5 179.1 0.5 179.1 0.6L182.8 11.8V11.9C182.8 12 182.8 12 182.7 12H182.1C182 11.9 182 11.9 181.9 11.8ZM176.3 8.8H180.9C180.9 8.8 180.9 8.8 181 8.8C181 8.8 181 8.8 181 8.7L178.7 1.6L176.3 8.8C176.3 8.8 176.2 8.8 176.3 8.8Z" fill="white" fill-opacity="0.4"/>
<path d="M116.2 28.4V17.3C116.2 17.2 116.3 17.1 116.4 17.1H116.9C117 17.1 117.1 17.2 117.1 17.3V28.4C117.1 28.5 117 28.6 116.9 28.6H116.4C116.2 28.6 116.2 28.5 116.2 28.4Z" fill="white" fill-opacity="0.4"/>
<path d="M128.101 17.1H128.601C128.701 17.1 128.801 17.2 128.801 17.3V28.4C128.801 28.5 128.701 28.6 128.601 28.6H128.101C128.001 28.6 128.001 28.6 127.901 28.5L122.001 18.9C122.001 18.9 122.001 18.9 122.001 19V28.6C122.001 28.7 121.901 28.8 121.801 28.8H121.301C121.201 28.8 121.101 28.7 121.101 28.6V17.3C121.101 17.2 121.201 17.1 121.301 17.1H121.901C122.001 17.1 122.001 17.1 122.101 17.2L128.001 26.8C128.001 26.8 128.001 26.8 128.001 26.7V17.1C128.001 17.2 128.001 17.1 128.101 17.1Z" fill="white" fill-opacity="0.4"/>
<path d="M132.601 28.4V17.3C132.601 17.2 132.701 17.1 132.801 17.1H136.601C137.601 17.1 138.501 17.4 139.101 17.9C139.701 18.5 140.001 19.2 140.001 20.2V25.5C140.001 26.5 139.701 27.2 139.101 27.8C138.501 28.4 137.701 28.6 136.601 28.6H132.801C132.601 28.6 132.601 28.5 132.601 28.4ZM133.501 27.8H136.601C137.401 27.8 138.001 27.6 138.401 27.2C138.801 26.8 139.101 26.2 139.101 25.4V20.3C139.101 19.6 138.901 19 138.401 18.5C138.001 18.1 137.301 17.9 136.601 17.9H133.501C133.501 17.9 133.401 17.9 133.401 18L133.501 27.8C133.401 27.8 133.401 27.8 133.501 27.8Z" fill="white" fill-opacity="0.4"/>
<path d="M145 28.3C144.4 28 144 27.6 143.7 27C143.4 26.5 143.2 25.8 143.2 25.1V17.3C143.2 17.2 143.3 17.1 143.4 17.1H143.9C144 17.1 144.1 17.2 144.1 17.3V25.2C144.1 26 144.4 26.7 144.9 27.2C145.4 27.7 146.1 28 147 28C147.9 28 148.6 27.7 149.1 27.2C149.6 26.7 149.9 26 149.9 25.2V17.3C149.9 17.2 150 17.1 150.1 17.1H150.6C150.7 17.1 150.8 17.2 150.8 17.3V25.1C150.8 25.8 150.6 26.4 150.3 27C150 27.5 149.5 28 149 28.3C148.5 28.6 147.8 28.8 147 28.8C146.2 28.7 145.6 28.6 145 28.3Z" fill="white" fill-opacity="0.4"/>
<path d="M155 27.9C154.3 27.4 154 26.6 154 25.7V25.2C154 25.1 154.1 25 154.2 25H154.7C154.8 25 154.9 25.1 154.9 25.2V25.7C154.9 26.4 155.2 26.9 155.7 27.3C156.3 27.7 157 27.9 158 27.9C158.9 27.9 159.6 27.7 160.1 27.3C160.6 26.9 160.8 26.4 160.8 25.7C160.8 25.3 160.7 24.9 160.5 24.6C160.3 24.3 160 24 159.5 23.8C159 23.6 158.4 23.2 157.6 22.9C156.7 22.5 156.1 22.2 155.7 22C155.3 21.8 154.9 21.5 154.7 21.1C154.4 20.7 154.3 20.3 154.3 19.7C154.3 18.8 154.6 18.1 155.2 17.6C155.8 17.1 156.7 16.9 157.8 16.9C159 16.9 159.9 17.2 160.6 17.7C161.3 18.2 161.6 19 161.6 19.9V20.3C161.6 20.4 161.5 20.5 161.4 20.5H160.9C160.8 20.5 160.7 20.4 160.7 20.3V20C160.7 19.3 160.4 18.8 159.9 18.3C159.4 17.9 158.6 17.7 157.7 17.7C156.9 17.7 156.2 17.9 155.8 18.2C155.4 18.5 155.1 19 155.1 19.7C155.1 20.1 155.2 20.5 155.4 20.8C155.6 21.1 155.9 21.3 156.3 21.5C156.7 21.7 157.3 22 158.1 22.3C158.9 22.6 159.6 22.9 160.1 23.2C160.6 23.5 161 23.9 161.3 24.3C161.6 24.7 161.7 25.2 161.7 25.8C161.7 26.7 161.4 27.4 160.7 27.9C160 28.4 159.1 28.7 157.9 28.7C156.6 28.7 155.7 28.5 155 27.9Z" fill="white" fill-opacity="0.4"/>
<path d="M171.3 17.3V17.7C171.3 17.8 171.2 17.9 171.1 17.9H167.8C167.8 17.9 167.7 17.9 167.7 18V28.5C167.7 28.6 167.6 28.7 167.5 28.7H167C166.9 28.7 166.8 28.6 166.8 28.5V18C166.8 18 166.8 17.9 166.7 17.9H163.6C163.5 17.9 163.4 17.8 163.4 17.7V17.3C163.4 17.2 163.5 17.1 163.6 17.1H171C171.2 17.1 171.3 17.2 171.3 17.3Z" fill="white" fill-opacity="0.4"/>
<path d="M181 28.5L178.5 23.3C178.5 23.3 178.5 23.3 178.4 23.3H175.3C175.3 23.3 175.2 23.3 175.2 23.4V28.5C175.2 28.6 175.1 28.7 175 28.7H174.5C174.4 28.7 174.3 28.6 174.3 28.5V17.3C174.3 17.2 174.4 17.1 174.5 17.1H178.6C179.5 17.1 180.3 17.4 180.8 18C181.3 18.6 181.6 19.3 181.6 20.2C181.6 21 181.4 21.6 181 22.2C180.6 22.8 180 23.1 179.3 23.2C179.2 23.2 179.2 23.2 179.3 23.3L181.8 28.5C181.8 28.5 181.8 28.5 181.8 28.6C181.8 28.7 181.8 28.7 181.7 28.7H181.2C181.1 28.6 181 28.6 181 28.5ZM175.3 18V22.5C175.3 22.5 175.3 22.6 175.4 22.6H178.7C179.4 22.6 179.9 22.4 180.3 22C180.7 21.6 180.9 21 180.9 20.3C180.9 19.6 180.7 19.1 180.3 18.6C179.9 18.2 179.3 18 178.7 18H175.3C175.3 17.9 175.3 17.9 175.3 18Z" fill="white" fill-opacity="0.4"/>
<path d="M185.101 28.4V17.3C185.101 17.2 185.201 17.1 185.301 17.1H185.801C185.901 17.1 186.001 17.2 186.001 17.3V28.4C186.001 28.5 185.901 28.6 185.801 28.6H185.301C185.101 28.6 185.101 28.5 185.101 28.4Z" fill="white" fill-opacity="0.4"/>
<path d="M196.4 28.5L195.7 26.3C195.7 26.3 195.7 26.3 195.6 26.3H190.5H190.4L189.7 28.5C189.7 28.6 189.6 28.6 189.5 28.6H189C188.9 28.6 188.8 28.5 188.9 28.4L192.5 17.2C192.5 17.1 192.6 17.1 192.7 17.1H193.4C193.5 17.1 193.6 17.1 193.6 17.2L197.3 28.4V28.5C197.3 28.6 197.3 28.6 197.2 28.6H196.6C196.5 28.6 196.5 28.5 196.4 28.5ZM190.8 25.5H195.4C195.4 25.5 195.4 25.5 195.5 25.5C195.5 25.5 195.5 25.5 195.5 25.4L193.2 18.3L190.8 25.5C190.7 25.5 190.7 25.5 190.8 25.5Z" fill="white" fill-opacity="0.4"/>
<path d="M200.3 28.4V17.3C200.3 17.2 200.4 17.1 200.5 17.1H201C201.1 17.1 201.2 17.2 201.2 17.3V27.8C201.2 27.8 201.2 27.9 201.3 27.9H207.2C207.3 27.9 207.4 28 207.4 28.1V28.5C207.4 28.6 207.3 28.7 207.2 28.7H200.5C200.3 28.6 200.3 28.5 200.3 28.4Z" fill="white" fill-opacity="0.4"/>
<path d="M123.8 33.8H124.4C124.5 33.8 124.6 33.9 124.6 34V45.1C124.6 45.2 124.5 45.3 124.4 45.3H123.9C123.8 45.3 123.7 45.2 123.7 45.1V35.5V35.4001L120.8 39.9001C120.7 40.0001 120.7 40 120.6 40H120.3C120.2 40 120.2 40.0001 120.1 39.9001L117.2 35.5C117.2 35.5 117.2 35.5 117.2 35.6V45.2001C117.2 45.3001 117.1 45.4001 117 45.4001H116.5C116.4 45.4001 116.3 45.3001 116.3 45.2001V34C116.3 33.9 116.4 33.8 116.5 33.8H117.1C117.2 33.8 117.2 33.8001 117.3 33.9001L120.5 38.8L123.7 33.9001C123.7 33.8001 123.7 33.8 123.8 33.8Z" fill="white" fill-opacity="0.4"/>
<path d="M135.7 34.6H129.5C129.5 34.6 129.4 34.6001 129.4 34.7001V39.1C129.4 39.1 129.4 39.2001 129.5 39.2001H133.9C134 39.2001 134.1 39.3001 134.1 39.4001V39.8C134.1 39.9 134 40 133.9 40H129.5C129.5 40 129.4 40 129.4 40.1V44.6C129.4 44.6 129.4 44.7001 129.5 44.7001H135.7C135.8 44.7001 135.9 44.8001 135.9 44.9001V45.3C135.9 45.4 135.8 45.5 135.7 45.5H128.7C128.6 45.5 128.5 45.4 128.5 45.3V34C128.5 33.9 128.6 33.8 128.7 33.8H135.7C135.8 33.8 135.9 33.9 135.9 34V34.4001C135.8 34.5001 135.8 34.6 135.7 34.6Z" fill="white" fill-opacity="0.4"/>
<path d="M140.6 45.0001C140 44.7001 139.6 44.3001 139.3 43.7001C139 43.2001 138.8 42.5001 138.8 41.8001V37.1001C138.8 36.4001 139 35.8001 139.3 35.3001C139.6 34.8001 140.1 34.4001 140.6 34.1001C141.2 33.8001 141.8 33.7001 142.6 33.7001C143.3 33.7001 144 33.8001 144.5 34.1001C145.1 34.4001 145.5 34.8001 145.8 35.3001C146.1 35.8001 146.3 36.4001 146.3 37.1001C146.3 37.2001 146.3 37.2001 146.3 37.2001H146.2H145.7C145.6 37.2001 145.5 37.1001 145.5 37.0001C145.5 36.2001 145.2 35.5001 144.7 35.0001C144.2 34.5001 143.5 34.3001 142.6 34.3001C141.7 34.3001 141 34.5001 140.5 35.0001C140 35.5001 139.7 36.2001 139.7 37.0001V41.8001C139.7 42.6001 140 43.3001 140.5 43.8001C141 44.3001 141.7 44.6001 142.6 44.6001C143.5 44.6001 144.2 44.3001 144.7 43.8001C145.2 43.3001 145.5 42.6001 145.5 41.8001C145.5 41.7001 145.6 41.7001 145.7 41.7001H146.2C146.3 41.7001 146.4 41.7001 146.4 41.8001C146.4 42.5001 146.2 43.1001 145.9 43.6001C145.6 44.1001 145.1 44.5001 144.6 44.8001C144 45.1001 143.4 45.2001 142.7 45.2001C141.8 45.4001 141.2 45.3001 140.6 45.0001Z" fill="white" fill-opacity="0.4"/>
<path d="M156.6 33.8H157.1C157.2 33.8 157.3 33.9 157.3 34V45.1C157.3 45.2 157.2 45.3 157.1 45.3H156.6C156.5 45.3 156.4 45.2 156.4 45.1V40C156.4 40 156.4 39.9001 156.3 39.9001H150.7C150.7 39.9001 150.6 39.9 150.6 40V45.1C150.6 45.2 150.5 45.3 150.4 45.3H150C149.9 45.3 149.8 45.2 149.8 45.1V34C149.8 33.9 149.9 33.8 150 33.8H150.5C150.6 33.8 150.7 33.9 150.7 34V39.1C150.7 39.1 150.7 39.2001 150.8 39.2001H156.4C156.4 39.2001 156.5 39.2 156.5 39.1V34C156.4 33.9 156.5 33.8 156.6 33.8Z" fill="white" fill-opacity="0.4"/>
<path d="M167.9 45.1001L167.2 42.9001C167.2 42.9001 167.2 42.9001 167.1 42.9001H162H161.9L161.2 45.1001C161.2 45.2001 161.1 45.2001 161 45.2001H160.4C160.3 45.2001 160.2 45.1001 160.3 45.0001L163.9 33.8001C163.9 33.7001 164 33.7001 164.1 33.7001H164.8C164.9 33.7001 165 33.7001 165 33.8001L168.7 45.0001V45.1001C168.7 45.2001 168.7 45.2001 168.6 45.2001H168C168 45.3001 167.9 45.2001 167.9 45.1001ZM162.2 42.2001C162.2 42.2001 162.3 42.2001 162.2 42.2001H166.8C166.8 42.2001 166.8 42.2001 166.9 42.2001C166.9 42.2001 166.9 42.2001 166.9 42.1001L164.6 35.0001L162.2 42.2001C162.2 42.1001 162.2 42.1001 162.2 42.2001Z" fill="white" fill-opacity="0.4"/>
<path d="M178.8 33.8H179.3C179.4 33.8 179.5 33.9 179.5 34V45.1C179.5 45.2 179.4 45.3 179.3 45.3H178.8C178.7 45.3 178.7 45.3001 178.6 45.2001L172.7 35.6C172.7 35.6 172.7 35.6001 172.7 35.7001V45.3C172.7 45.4 172.6 45.5 172.5 45.5H172C171.9 45.5 171.8 45.4 171.8 45.3V34C171.8 33.9 171.9 33.8 172 33.8H172.6C172.7 33.8 172.7 33.8001 172.8 33.9001L178.7 43.5C178.7 43.5 178.7 43.5001 178.7 43.4001V34C178.7 33.9 178.7 33.8 178.8 33.8Z" fill="white" fill-opacity="0.4"/>
<path d="M183.5 45.1V34C183.5 33.9 183.6 33.8 183.7 33.8H184.2C184.3 33.8 184.4 33.9 184.4 34V45.1C184.4 45.2 184.3 45.3 184.2 45.3H183.7C183.6 45.3 183.5 45.2 183.5 45.1Z" fill="white" fill-opacity="0.4"/>
<path d="M189.8 45.0001C189.2 44.7001 188.8 44.3001 188.5 43.7001C188.2 43.2001 188 42.5001 188 41.8001V37.1001C188 36.4001 188.2 35.8001 188.5 35.3001C188.8 34.8001 189.3 34.4001 189.8 34.1001C190.4 33.8001 191 33.7001 191.8 33.7001C192.5 33.7001 193.2 33.8001 193.7 34.1001C194.3 34.4001 194.7 34.8001 195 35.3001C195.3 35.8001 195.5 36.4001 195.5 37.1001C195.5 37.2001 195.5 37.2001 195.5 37.2001H195.4H194.9C194.8 37.2001 194.7 37.1001 194.7 37.0001C194.7 36.2001 194.4 35.5001 193.9 35.0001C193.4 34.5001 192.7 34.3001 191.8 34.3001C190.9 34.3001 190.2 34.5001 189.7 35.0001C189.2 35.5001 188.9 36.2001 188.9 37.0001V41.8001C188.9 42.6001 189.2 43.3001 189.7 43.8001C190.2 44.3001 190.9 44.6001 191.8 44.6001C192.7 44.6001 193.4 44.3001 193.9 43.8001C194.4 43.3001 194.7 42.6001 194.7 41.8001C194.7 41.7001 194.8 41.7001 194.9 41.7001H195.4C195.5 41.7001 195.6 41.7001 195.6 41.8001C195.6 42.5001 195.4 43.1001 195.1 43.6001C194.8 44.1001 194.3 44.5001 193.8 44.8001C193.2 45.1001 192.6 45.2001 191.9 45.2001C191 45.4001 190.4 45.3001 189.8 45.0001Z" fill="white" fill-opacity="0.4"/>
<path d="M205.5 45.1001L204.8 42.9001C204.8 42.9001 204.8 42.9001 204.7 42.9001H199.6H199.5L198.8 45.1001C198.8 45.2001 198.7 45.2001 198.6 45.2001H198C197.9 45.2001 197.8 45.1001 197.9 45.0001L201.5 33.8001C201.5 33.7001 201.6 33.7001 201.7 33.7001H202.4C202.5 33.7001 202.6 33.7001 202.6 33.8001L206.3 45.0001V45.1001C206.3 45.2001 206.3 45.2001 206.2 45.2001H205.6C205.6 45.3001 205.6 45.2001 205.5 45.1001ZM199.9 42.2001H204.5C204.5 42.2001 204.5 42.2001 204.6 42.2001C204.6 42.2001 204.6 42.2001 204.6 42.1001L202.3 35.0001L199.9 42.2001C199.8 42.1001 199.8 42.1001 199.9 42.2001Z" fill="white" fill-opacity="0.4"/>
<path d="M209.4 45.1V34C209.4 33.9 209.5 33.8 209.6 33.8H210.1C210.2 33.8 210.3 33.9 210.3 34V44.5C210.3 44.5 210.3 44.6 210.4 44.6H216.3C216.4 44.6 216.5 44.7 216.5 44.8V45.2001C216.5 45.3001 216.4 45.4001 216.3 45.4001H209.6C209.4 45.3001 209.4 45.2 209.4 45.1Z" fill="white" fill-opacity="0.4"/>
<path d="M20.5002 23.9V34.3C20.5002 34.5 20.3002 34.7001 20.1002 34.7001H15.1002C14.9002 34.7001 14.7002 34.5 14.7002 34.3V12.7C14.7002 12.5 14.9002 12.3 15.1002 12.3H20.3002C20.4002 12.3 20.6002 12.4 20.6002 12.5L27.1002 23.4C27.3002 23.7 27.8002 23.6 27.8002 23.2V12.7C27.8002 12.5 28.0002 12.3 28.2002 12.3H33.2002C33.4002 12.3 33.6002 12.5 33.6002 12.7V34.2001C33.6002 34.4001 33.4002 34.6 33.2002 34.6H27.8002C27.7002 34.6 27.5002 34.5001 27.5002 34.4001L21.2002 23.6C21.0002 23.3 20.5002 23.5 20.5002 23.9Z" fill="white" fill-opacity="0.4"/>
<path d="M44.4 34.7001H38.9C38.7 34.7001 38.5 34.5 38.5 34.3V12.7C38.5 12.5 38.7 12.3 38.9 12.3H44.4C44.6 12.3 44.8 12.5 44.8 12.7V34.2001C44.8 34.5 44.6 34.7001 44.4 34.7001Z" fill="white" fill-opacity="0.4"/>
<path d="M55.4006 23.8V34.3C55.4006 34.5 55.2006 34.7001 55.0006 34.7001H50.0006C49.8006 34.7001 49.6006 34.5 49.6006 34.3V12.7C49.6006 12.5 49.8006 12.3 50.0006 12.3H55.7006C55.9006 12.3 56.0006 12.4 56.1006 12.5L60.6006 21.9C60.7006 22.2 61.2006 22.2 61.3006 21.9L65.4006 12.5C65.5006 12.4 65.6006 12.3 65.8006 12.3H71.8006C72.0006 12.3 72.2006 12.5 72.2006 12.7V34.2001C72.2006 34.4001 72.0006 34.6 71.8006 34.6H66.6006C66.4006 34.6 66.2006 34.4001 66.2006 34.2001V23.6C66.2006 23.2 65.6006 23 65.4006 23.4L62.1006 30.4C62.0006 30.5 61.9006 30.6 61.7006 30.6H59.7006C59.5006 30.6 59.4006 30.5 59.3006 30.4L56.0006 23.6C55.9006 23.2 55.4006 23.3 55.4006 23.8Z" fill="white" fill-opacity="0.4"/>
<path d="M76.4004 30.2C76.4004 30 76.6004 29.8 76.8004 29.8H85.6004C85.9004 29.8 86.0004 29.7 86.0004 29.5V26.3C86.0004 26.1 85.9004 26 85.6004 26H79.3004C77.6004 26 76.4004 24.9 76.4004 23.4V15C76.4004 13.4 77.6004 12.4 79.3004 12.4H91.6004C91.8004 12.4 92.0004 12.6 92.0004 12.8V16.8C92.0004 17 91.8004 17.2 91.6004 17.2H83.1004C82.9004 17.2 82.7004 17.4 82.7004 17.6V20.9C82.7004 21 82.8004 21.2 83.1004 21.2H89.4004C91.1004 21.2 92.3004 22.3 92.3004 23.8V32C92.3004 33.6 91.1004 34.6 89.4004 34.6H76.8004C76.6004 34.6 76.4004 34.4 76.4004 34.2V30.2Z" fill="white" fill-opacity="0.4"/>
<path d="M96.1 47H0.4C0.2 47 0 46.8 0 46.6V9.9C0 9.8 0.1 9.6 0.1 9.5L9.5 0.1C9.6 0.1 9.8 0 9.9 0H105.6C105.8 0 106 0.2 106 0.4V37.1C106 37.2 105.9 37.4 105.9 37.5L96.5 46.9C96.4 46.9 96.2 47 96.1 47ZM4.4 43H94.5C94.6 43 94.8 42.9 94.9 42.9L101.9 35.9C102 35.8 102 35.7 102 35.5V4.4C102 4.2 101.8 4 101.6 4H11.5C11.4 4 11.2 4.1 11.1 4.1L4.1 11.1C4.1 11.3 4 11.4 4 11.5V42.6C4 42.8 4.2 43 4.4 43Z" fill="white" fill-opacity="0.4"/>
</g>
<defs>
<clipPath id="clip0">
<rect width="216.3" height="47" fill="white"/>
</clipPath>
</defs>
</svg>
